<svg width="17" height="17" viewBox="0 0 17 17" fill="none" xmlns="http://www.w3.org/2000/svg">
<path fill-rule="evenodd" clip-rule="evenodd" d="M0 8.4972C0 12.6986 3.06844 16.1919 7.081 16.9L7.1284 16.8621C7.1126 16.8591 7.0968 16.856 7.081 16.8528V10.8575H4.9567V8.4972H7.081V6.6089C7.081 4.48464 8.45 3.30447 10.3855 3.30447C10.9992 3.30447 11.6601 3.39888 12.2737 3.4933V5.6648H11.188C10.1494 5.6648 9.9134 6.1841 9.9134 6.845V8.4972H12.1793L11.8017 10.8575H9.9134V16.8528C9.8976 16.856 9.8818 16.8591 9.866 16.8621L9.9134 16.9C13.926 16.1919 16.9944 12.6986 16.9944 8.4972C16.9944 3.82374 13.1707 0 8.4972 0C3.82374 0 0 3.82374 0 8.4972Z" fill="white"/>
</svg>
