<svg width="24" height="24" viewBox="0 0 24 24" fill="none" xmlns="http://www.w3.org/2000/svg">
<path d="M21 0C22.6569 0 24 1.34315 24 3V21C24 22.6569 22.6569 24 21 24H3C1.34315 24 0 22.6569 0 21V3C0 1.34315 1.34315 0 3 0H21ZM7.86035 4C5.73107 4 4 5.73107 4 7.86035V16.1396C4 18.2689 5.73107 20 7.86035 20H16.1396C18.2689 20 20 18.2689 20 16.1396V7.86035C20 5.73107 18.2689 4 16.1396 4H7.86035ZM15.8643 5.37891C17.3883 5.379 18.621 6.61169 18.6211 8.13574V15.8643C18.621 17.3883 17.3883 18.621 15.8643 18.6211H8.13574C6.61168 18.621 5.37902 17.3883 5.37891 15.8643V8.13574C5.37902 6.61168 6.61168 5.37898 8.13574 5.37891H15.8643ZM12.0117 7.86035C9.72931 7.86035 7.87607 9.7137 7.87598 11.9961C7.87598 14.2786 9.72925 16.1318 12.0117 16.1318C14.2941 16.1317 16.1475 14.2785 16.1475 11.9961C16.1474 9.71377 14.294 7.86046 12.0117 7.86035ZM12.0117 9.24609C13.5282 9.2462 14.7686 10.4874 14.7686 12.0039C14.7685 13.5203 13.5281 14.7606 12.0117 14.7607C10.4952 14.7607 9.25399 13.5204 9.25391 12.0039C9.25391 10.4874 10.4952 9.24609 12.0117 9.24609ZM16.4229 6.75684C15.9663 6.75703 15.5959 7.1274 15.5957 7.58398C15.5957 8.04072 15.9662 8.41094 16.4229 8.41113C16.8797 8.41113 17.25 8.04084 17.25 7.58398C17.2498 7.12728 16.8796 6.75684 16.4229 6.75684Z" fill="white"/>
</svg>
