<svg width="18" height="18" viewBox="0 0 18 18" fill="none" xmlns="http://www.w3.org/2000/svg">
<path d="M8.7255 0C6.35597 0 6.0586 0.0103601 5.12796 0.0527101C4.19914 0.0952501 3.56515 0.2423 3.0104 0.45806C2.43656 0.68091 1.9498 0.97902 1.46485 1.46416C0.97953 1.94913 0.68144 2.43591 0.45787 3.00958C0.24157 3.56453 0.09434 4.19872 0.0525301 5.12721C0.01091 6.05788 0 6.35544 0 8.725C0 11.0946 0.0105401 11.391 0.0527101 12.3217C0.0954301 13.2506 0.24248 13.8846 0.45805 14.4393C0.68107 15.0132 0.97917 15.5 1.4643 15.9849C1.94907 16.4703 2.43584 16.7691 3.00931 16.9919C3.56442 17.2077 4.1986 17.3548 5.12724 17.3973C6.05787 17.4396 6.35506 17.45 8.7244 17.45C11.094 17.45 11.3905 17.4396 12.3211 17.3973C13.25 17.3548 13.8847 17.2077 14.4398 16.9919C15.0135 16.7691 15.4995 16.4703 15.9843 15.9849C16.4696 15.5 16.7677 15.0132 16.9912 14.4395C17.2057 13.8846 17.353 13.2504 17.3966 12.3219C17.4384 11.3912 17.4493 11.0946 17.4493 8.725C17.4493 6.35544 17.4384 6.05806 17.3966 5.12739C17.353 4.19854 17.2057 3.56453 16.9912 3.00976C16.7677 2.43591 16.4696 1.94913 15.9843 1.46416C15.4989 0.97884 15.0136 0.68073 14.4393 0.45806C13.8831 0.2423 13.2487 0.0952501 12.3199 0.0527101C11.3892 0.0103601 11.093 0 8.7227 0H8.7255ZM7.9428 1.57232C8.1751 1.57195 8.4343 1.57232 8.7255 1.57232C11.055 1.57232 11.3311 1.58068 12.251 1.62249C13.1016 1.66139 13.5633 1.80353 13.8709 1.92295C14.278 2.08109 14.5683 2.27014 14.8735 2.57551C15.1789 2.88089 15.3679 3.17172 15.5264 3.57889C15.6458 3.88608 15.7881 4.34778 15.8269 5.19846C15.8687 6.11822 15.8777 6.39452 15.8777 8.723C15.8777 11.0515 15.8687 11.3278 15.8269 12.2475C15.788 13.0982 15.6458 13.5599 15.5264 13.8671C15.3683 14.2743 15.1789 14.5642 14.8735 14.8694C14.5681 15.1748 14.2782 15.3638 13.8709 15.522C13.5637 15.6419 13.1016 15.7837 12.251 15.8226C11.3313 15.8644 11.055 15.8735 8.7255 15.8735C6.39578 15.8735 6.11968 15.8644 5.19994 15.8226C4.34928 15.7833 3.8876 15.6412 3.57987 15.5218C3.17271 15.3636 2.88189 15.1746 2.57652 14.8692C2.27116 14.5638 2.08212 14.2737 1.92362 13.8664C1.8042 13.5592 1.66188 13.0975 1.62316 12.2468C1.58136 11.3271 1.573 11.0508 1.573 8.7208C1.573 6.39088 1.58136 6.11604 1.62316 5.19628C1.66206 4.3456 1.8042 3.8839 1.92362 3.57634C2.08176 3.16917 2.27116 2.87834 2.57652 2.57297C2.88189 2.26759 3.17271 2.07855 3.57987 1.92005C3.88741 1.80008 4.34928 1.6583 5.19994 1.61921C6.0048 1.58286 6.31671 1.57195 7.9428 1.57014V1.57232ZM13.3827 3.02103C12.8046 3.02103 12.3357 3.48945 12.3357 4.06767C12.3357 4.6457 12.8046 5.11467 13.3827 5.11467C13.9607 5.11467 14.4296 4.6457 14.4296 4.06767C14.4296 3.48964 13.9607 3.02103 13.3827 3.02103ZM8.7255 4.24435C6.25109 4.24435 4.24495 6.25055 4.24495 8.725C4.24495 11.1994 6.25109 13.2047 8.7255 13.2047C11.1998 13.2047 13.2053 11.1994 13.2053 8.725C13.2053 6.25055 11.1999 4.24435 8.7255 4.24435ZM8.7255 5.81667C10.3315 5.81667 11.6337 7.1187 11.6337 8.725C11.6337 10.3311 10.3315 11.6333 8.7255 11.6333C7.1192 11.6333 5.81722 10.3311 5.81722 8.725C5.81722 7.1187 7.1192 5.81667 8.7255 5.81667Z" fill="white"/>
</svg>
