<svg width="24" height="24" viewBox="0 0 24 24" fill="none" xmlns="http://www.w3.org/2000/svg">
<path fill-rule="evenodd" clip-rule="evenodd" d="M21.75 0C22.9926 0 24 1.00736 24 2.25V21.75C24 22.9926 22.9926 24 21.75 24H2.25C1.00736 24 0 22.9926 0 21.75V2.25C0 1.00736 1.00736 0 2.25 0H21.75ZM11.9963 3.99976C9.41904 3.99989 7.3374 6.05551 7.3374 8.59937C7.33741 9.03448 7.39719 9.44953 7.51099 9.84448L6.59399 9.6167C6.50712 9.59666 6.4202 9.58304 6.32666 9.58301C5.95187 9.58301 5.58345 9.77727 5.38257 10.1118C5.0947 10.5871 5.21528 11.1965 5.66382 11.5312L7.1228 12.6292C7.1228 12.6292 7.15642 14.2494 4.0437 15.769C3.64203 15.9632 3.58834 16.5122 3.95654 16.7666C4.33812 17.0343 4.89375 17.3022 5.63672 17.4829C5.77061 17.5097 5.8778 17.6105 5.91797 17.7444L5.99121 18.0256C6.07832 18.3535 6.38009 18.5805 6.72144 18.6006C10.0015 18.7747 9.57992 20.0002 11.9963 20.0002C14.4131 20.0002 13.9916 18.7746 17.272 18.6006C17.6132 18.5872 17.9076 18.3535 18.0015 18.0256L18.0754 17.7444C18.1089 17.6105 18.2228 17.5097 18.3567 17.4829C19.0997 17.3089 19.6486 17.0344 20.0369 16.7666L20.0435 16.7732C20.4116 16.5188 20.358 15.9698 19.9563 15.7756C16.8435 14.256 16.8772 12.6357 16.8772 12.6357L18.3362 11.5386C18.6174 11.3243 18.7712 11.0024 18.7712 10.6743C18.7712 10.4803 18.7245 10.2858 18.6174 10.1118C18.3631 9.69702 17.8678 9.50309 17.3994 9.6167L16.4817 9.84448C16.5955 9.44953 16.656 9.02778 16.656 8.59937C16.656 6.05542 14.5738 3.99976 11.9963 3.99976Z" fill="white"/>
</svg>
