<svg width="17" height="15" viewBox="0 0 17 15" fill="none" xmlns="http://www.w3.org/2000/svg">
<path d="M10.8285 13.9961C10.0263 14.2012 9.0541 13.494 8.1875 13.494C7.3209 13.494 6.34871 14.2012 5.54652 13.9961C4.71645 13.7836 4.31602 12.4893 3.58289 12.0862C2.83848 11.6765 1.36492 11.9474 0.75 11.3703C0.75 11.3703 4.46875 10.0422 4.46875 4.46875C4.46875 3.48247 4.86055 2.53659 5.55795 1.83919C6.25535 1.14179 7.2012 0.75 8.1875 0.75C9.1738 0.75 10.1197 1.14179 10.8171 1.83919C11.5145 2.53659 11.9062 3.48247 11.9063 4.46875C11.9063 10.0396 15.625 11.3703 15.625 11.3703C15.0101 11.9474 13.5365 11.6765 12.7921 12.0862C12.059 12.4893 11.6586 13.7836 10.8285 13.9961Z" fill="black" stroke="white" stroke-width="1.5" stroke-linecap="round" stroke-linejoin="round"/>
</svg>
