<svg width="15" height="16" viewBox="0 0 15 16" fill="none" xmlns="http://www.w3.org/2000/svg">
<path d="M5.2664 13.2589C6.6014 13.2589 7.6837 12.3032 7.6837 10.8417V0H10.5826C10.42 1.97723 12.3855 3.88718 14.5532 3.8435V6.5695C12.6994 6.5695 11.123 5.78561 10.5743 5.35059V10.8417C10.5743 13.2589 8.6728 16 5.2664 16C1.8601 16 0 13.2589 0 10.8417C0 7.43 3.61044 5.45136 6.0017 5.93497V8.7115C5.8814 8.669 5.5712 8.6061 5.3069 8.6061C3.96086 8.5564 2.8492 9.6482 2.8492 10.8417C2.8492 12.1767 3.93143 13.2589 5.2664 13.2589Z" fill="white"/>
</svg>
