<svg width="24" height="24" viewBox="0 0 24 24" fill="none" xmlns="http://www.w3.org/2000/svg">
<path fill-rule="evenodd" clip-rule="evenodd" d="M21.75 0C22.9926 0 24 1.00736 24 2.25V21.75C24 22.9926 22.9926 24 21.75 24H2.25C1.00736 24 0 22.9926 0 21.75V2.25C0 1.00736 1.00736 0 2.25 0H21.75ZM12.5354 3.99976C12.3887 3.99979 12.2703 4.11892 12.2703 4.26562V15.2278C12.2703 16.4155 11.3618 17.4569 10.1741 17.5129C8.81162 17.5758 7.70731 16.4087 7.875 15.0322C7.99384 14.0611 8.77667 13.2577 9.7478 13.125C9.94327 13.0971 10.1317 13.0968 10.3132 13.1177C10.4739 13.1386 10.6208 13.0132 10.6208 12.8525V10.8962C10.6208 10.7565 10.516 10.6381 10.3762 10.6311C10.0969 10.6102 9.8107 10.6167 9.52441 10.6516C7.37945 10.8962 5.65312 12.6287 5.41553 14.7737C5.10112 17.6033 7.30916 20.0002 10.0759 20.0002C12.668 20.0002 14.764 17.9041 14.7642 15.312L14.7576 8.6814C14.766 8.69538 15.5482 9.97414 18.3413 10.0576C18.4879 10.0576 18.6136 9.93907 18.6138 9.79248V7.84277C18.6137 7.69607 18.495 7.58462 18.3552 7.57764C16.1756 7.45174 15.1415 5.7817 15.0366 4.25171C15.0296 4.11204 14.9042 3.99987 14.7576 3.99976H12.5354Z" fill="white"/>
</svg>
