<svg width="20" height="14" viewBox="0 0 20 14" fill="none" xmlns="http://www.w3.org/2000/svg">
<path fill-rule="evenodd" clip-rule="evenodd" d="M17.8212 0.42824C18.6776 0.65882 19.3529 1.33412 19.5835 2.19059C20.0118 3.75529 19.9953 7.0165 19.9953 7.0165C19.9953 7.0165 19.9953 10.2612 19.5835 11.8259C19.3529 12.6824 18.6776 13.3576 17.8212 13.5882C16.2565 14 9.9976 14 9.9976 14C9.9976 14 3.75529 14 2.17412 13.5718C1.31765 13.3412 0.64235 12.6659 0.41176 11.8094C8.9407e-08 10.2612 0 7 0 7C0 7 8.9407e-08 3.75529 0.41176 2.19059C0.64235 1.33412 1.33412 0.64235 2.17412 0.41176C3.73882 -1.49012e-07 9.9976 0 9.9976 0C9.9976 0 16.2565 -1.78814e-07 17.8212 0.42824ZM13.2091 6.8857L8.0044 9.8834V3.88807L13.2091 6.8857Z" fill="white"/>
</svg>
