<svg width="24" height="24" viewBox="0 0 24 24" fill="none" xmlns="http://www.w3.org/2000/svg">
<path d="M9.65039 10.3083C9.65041 9.8676 10.1251 9.58342 10.5264 9.78247L14.0061 11.4809C14.4512 11.6942 14.4512 12.3201 14.0061 12.5334V12.5261L10.5264 14.2253C10.1251 14.4243 9.65043 14.1401 9.65039 13.6994V10.3083Z" fill="white"/>
<path fill-rule="evenodd" clip-rule="evenodd" d="M21.75 0C22.9926 0 24 1.00736 24 2.25V21.75C24 22.9926 22.9926 24 21.75 24H2.25C1.00736 24 0 22.9926 0 21.75V2.25C0 1.00736 1.00736 0 2.25 0H21.75ZM5.73999 6C4.49965 6 3.50024 6.98119 3.50024 8.18262V15.8174C3.50024 17.0259 4.50695 18 5.73999 18H18.26C19.5004 18 20.4998 17.0259 20.4998 15.8174V8.18262C20.4998 6.97408 19.4931 6 18.26 6H5.73999Z" fill="white"/>
</svg>
