
<!-- Generator: visioncortex VTracer 0.6.4 -->
<svg version="1.1" xmlns="http://www.w3.org/2000/svg" viewBox="0 0 1512 862" preserveAspectRatio="xMidYMid meet">
<path d="M0 0 C7.318 2.021 13.997 0.489 21.23 -1.125 C35.558 -4.306 35.558 -4.306 43.168 -1.125 C45.695 -0.995 45.695 -0.995 48.293 -1.188 C61.349 -1.38 73.494 4.353 83.168 12.875 C86.513 15.01 88.508 15.85 92.48 16 C96.206 14.863 97.655 13.789 100.543 11.312 C104.297 8.264 106.672 6.866 111.535 7.23 C115.664 8.241 119.48 10.017 123.355 11.732 C128.806 14.025 133.441 14.313 139.363 13.793 C142.78 13.893 144.479 14.811 147.168 16.875 C147.168 17.535 147.168 18.195 147.168 18.875 C153.338 20.886 153.338 20.886 159.418 19.375 C160.779 18.633 160.779 18.633 162.168 17.875 C162.882 18.178 163.596 18.481 164.332 18.793 C168.057 20.214 171.394 19.971 175.293 19.688 C176.05 19.639 176.807 19.591 177.587 19.541 C182.804 19.145 187.469 18.079 192.465 16.516 C197.591 15.301 202.945 15.304 208.168 15.875 C209.158 16.535 210.148 17.195 211.168 17.875 C213.795 17.964 216.245 17.926 218.855 17.75 C219.609 17.704 220.363 17.659 221.14 17.612 C226.402 17.211 231.282 16.232 236.355 14.812 C245.999 12.14 254.768 11.406 264.119 15.151 C267.39 16.307 270.737 16.666 274.168 17 C274.894 17.079 275.62 17.159 276.369 17.24 C282.761 17.909 289.162 18.266 295.582 18.531 C299.32 18.89 302.568 19.833 306.168 20.875 C308.309 21.079 310.456 21.226 312.605 21.312 C317.359 21.606 320.948 22.356 325.273 24.25 C328.185 25.211 330.954 24.964 333.988 24.859 C337.399 24.884 339.986 25.641 343.168 26.875 C343.828 27.865 344.488 28.855 345.168 29.875 C355.365 34.037 366.112 29.953 376.168 26.875 C376.498 26.545 376.828 26.215 377.168 25.875 C379.359 25.671 381.548 25.556 383.746 25.449 C386.335 25.02 386.335 25.02 388.512 22.973 C395.581 17.39 406.438 16.438 415.168 16.875 C416.158 16.545 417.148 16.215 418.168 15.875 C421.262 15.684 424.355 15.558 427.453 15.449 C428.349 15.26 429.245 15.07 430.168 14.875 C430.828 13.555 431.488 12.235 432.168 10.875 C432.168 290.715 432.168 570.555 432.168 858.875 C430.518 858.545 428.868 858.215 427.168 857.875 C426.508 858.205 425.848 858.535 425.168 858.875 C423.888 858.183 423.888 858.183 422.582 857.477 C418.418 855.523 415.076 855.36 410.543 855.25 C402.535 854.975 402.535 854.975 400.074 854.305 C397.338 853.688 395.719 854.803 393.168 855.875 C390.339 856.224 387.536 856.375 384.691 856.531 C381.926 856.721 381.926 856.721 379.168 858.875 C376.023 859.176 376.023 859.176 372.355 859.188 C371.153 859.204 369.95 859.221 368.711 859.238 C364.872 858.845 362.569 857.613 359.168 855.875 C356.65 855.722 356.65 855.722 354.23 856.188 C350.132 856.751 346.304 857.051 342.168 856.875 C341.838 856.545 341.508 856.215 341.168 855.875 C336.119 855.623 336.119 855.623 331.191 856.445 C328.669 856.981 327.098 856.515 324.605 855.875 C319.035 854.749 313.805 854.868 308.168 855.188 C307.331 855.235 306.493 855.282 305.631 855.33 C302.229 855.554 299.423 855.79 296.168 856.875 C294.807 856.955 293.442 856.983 292.078 856.973 C291.294 856.969 290.509 856.966 289.701 856.963 C288.886 856.955 288.071 856.946 287.23 856.938 C286.419 856.933 285.608 856.928 284.771 856.924 C283.257 856.915 281.742 856.904 280.227 856.891 C278.207 856.875 276.188 856.875 274.168 856.875 C267.224 856.028 260.49 853.867 253.805 851.871 C248.756 850.488 243.642 849.599 238.496 848.656 C235.168 847.875 235.168 847.875 232.168 845.875 C231.075 846.04 229.982 846.205 228.855 846.375 C224.073 847.023 221.129 845.795 216.844 843.785 C213.786 842.745 211.684 842.868 208.48 843.125 C201.692 843.242 197.378 841.122 192.168 836.875 C190.648 835.246 190.648 835.246 189.418 833.688 C186.376 829.886 183.564 828.175 178.654 827.561 C175.699 827.391 172.753 827.303 169.793 827.25 C167.785 827.198 165.777 827.144 163.77 827.086 C162.804 827.06 161.838 827.035 160.843 827.008 C158.558 826.894 156.406 826.639 154.152 826.266 C148.964 825.538 143.934 826.474 138.793 827.25 C137.797 827.389 136.8 827.528 135.773 827.672 C130.818 828.253 130.818 828.253 126.168 829.875 C110.069 829.776 110.069 829.776 105.168 824.875 C103.298 824.663 101.421 824.505 99.543 824.375 C96.043 824.126 92.667 823.826 89.23 823.125 C85.47 822.818 84.304 823.945 81.168 825.875 C79.158 825.611 77.158 825.262 75.168 824.875 C71.751 824.472 68.335 824.074 64.914 823.713 C62.054 823.38 59.595 823.093 57.012 821.773 C54.413 820.507 52.625 821.007 49.793 821.438 C42.587 822.211 36.093 820.87 29.168 818.875 C28.838 818.545 28.508 818.215 28.168 817.875 C25.011 817.883 21.868 817.954 18.715 818.09 C16.707 818.133 16.707 818.133 13.168 817.875 C12.674 817.379 12.181 816.882 11.672 816.371 C10.105 814.484 10.105 814.484 6.656 814.652 C5.264 814.694 3.872 814.748 2.48 814.812 C-4.088 814.977 -9.842 814.87 -15.832 811.875 C-19.094 811.469 -22.354 811.11 -25.627 810.801 C-29.237 810.403 -31.898 809.847 -35.277 808.383 C-39.568 806.563 -43.41 806.044 -48.02 805.625 C-49.316 805.497 -49.316 805.497 -50.638 805.367 C-57.816 804.755 -64.774 805.096 -71.944 805.626 C-77.565 805.982 -81.988 805.416 -87.352 803.57 C-91.097 802.521 -94.659 802.782 -98.52 802.918 C-101.76 802.876 -104.732 802.479 -107.92 801.962 C-115.288 800.779 -120.374 800.776 -126.832 804.875 C-130.021 806.765 -132.2 807.077 -135.895 806.938 C-139.012 806.83 -140.829 806.874 -143.832 807.875 C-149.794 808.891 -154.109 809.037 -159.832 806.875 C-166.793 805.9 -172.716 808.812 -178.832 811.875 C-179.492 812.535 -180.152 813.195 -180.832 813.875 C-183.132 814.285 -185.449 814.607 -187.77 814.875 C-193.13 815.44 -193.13 815.44 -197.832 817.875 C-199.723 818.406 -199.723 818.406 -201.867 818.805 C-202.668 818.958 -203.469 819.112 -204.294 819.271 C-205.581 819.508 -205.581 819.508 -206.895 819.75 C-212.245 820.764 -217.579 821.785 -222.875 823.059 C-223.668 823.248 -224.462 823.437 -225.279 823.631 C-226.77 823.991 -228.258 824.361 -229.742 824.744 C-235.735 826.173 -240.87 826.034 -246.707 823.75 C-251.163 822.502 -255.341 822.814 -259.832 823.875 C-261.058 824.631 -261.058 824.631 -262.309 825.402 C-268.88 829.238 -277.698 826.826 -284.77 825.375 C-295.435 823.209 -305.117 822.135 -314.832 827.875 C-315.884 828.617 -316.936 829.36 -318.02 830.125 C-323.864 833.623 -332.46 832.576 -338.875 831.242 C-342.459 830.797 -344.695 831.483 -348.082 832.688 C-349.118 833.045 -350.155 833.402 -351.223 833.77 C-353.932 834.725 -353.932 834.725 -355.832 836.875 C-363.525 838.795 -370.482 837.479 -377.971 835.496 C-386.051 833.42 -394.199 832.743 -402.497 832.086 C-405.672 831.799 -408.826 831.376 -411.984 830.937 C-414.728 830.845 -415.874 832.052 -417.832 833.875 C-423.647 836.449 -429.826 836.515 -436.082 836.938 C-438.254 837.094 -440.426 837.252 -442.598 837.41 C-443.647 837.487 -444.697 837.563 -445.778 837.642 C-454.698 838.299 -454.698 838.299 -463.457 840 C-468.474 841.06 -473.138 840.758 -478.227 840.33 C-484.771 839.799 -491.269 839.835 -497.83 840 C-503.219 840.078 -507.634 839.288 -512.832 837.875 C-515.394 837.604 -515.394 837.604 -517.645 837.688 C-518.737 837.697 -518.737 837.697 -519.852 837.707 C-522.043 837.815 -522.043 837.815 -524.832 838.875 C-527.762 839.024 -530.652 839.106 -533.582 839.125 C-534.762 839.156 -534.762 839.156 -535.965 839.188 C-541.43 839.224 -544.895 838.15 -549.832 835.875 C-552.447 835.554 -552.447 835.554 -554.895 835.75 C-557.566 835.88 -559.798 835.882 -562.43 835.355 C-567.388 834.655 -572.22 835.033 -577.207 835.312 C-578.229 835.365 -579.251 835.417 -580.305 835.471 C-582.814 835.6 -585.323 835.735 -587.832 835.875 C-587.832 835.215 -587.832 834.555 -587.832 833.875 C-588.451 833.731 -589.07 833.586 -589.707 833.438 C-591.832 832.875 -591.832 832.875 -593.832 831.875 C-596.01 831.805 -598.17 831.877 -600.348 831.938 C-602.832 831.875 -602.832 831.875 -605.711 831.336 C-609.165 830.826 -612.057 831.097 -615.52 831.5 C-621.328 831.988 -625.61 831.427 -631.109 829.637 C-635.054 828.533 -638.96 828.376 -643.035 828.133 C-645.601 827.896 -647.808 827.419 -650.27 826.688 C-654.326 825.762 -655.157 826.287 -658.832 827.875 C-666.58 829.834 -674.249 830.212 -682.207 830.188 C-683.26 830.204 -684.313 830.22 -685.398 830.236 C-690.81 830.24 -694.338 830.183 -698.832 826.875 C-699.863 827.04 -700.895 827.205 -701.957 827.375 C-705.83 827.875 -707.402 827.567 -711.02 826.438 C-718.174 824.292 -725.244 823.823 -732.457 825.938 C-735.823 826.872 -737.401 826.793 -740.77 826.312 C-745.003 825.762 -747.418 826.337 -751.359 828.102 C-754.862 829.197 -758.378 829.406 -762.02 829.625 C-762.709 829.669 -763.399 829.714 -764.11 829.759 C-769.869 830.045 -774.081 829.321 -779.234 826.824 C-785.87 824.1 -792.328 824.472 -799.395 824.688 C-801.917 824.739 -804.439 824.788 -806.961 824.832 C-808.617 824.878 -808.617 824.878 -810.307 824.925 C-812.832 824.875 -812.832 824.875 -813.832 823.875 C-818.055 823.62 -822.29 823.69 -826.52 823.688 C-827.705 823.675 -828.89 823.663 -830.111 823.65 C-831.261 823.648 -832.41 823.647 -833.594 823.645 C-834.645 823.64 -835.697 823.636 -836.78 823.632 C-841.986 824.046 -846.062 825.912 -850.52 828.5 C-855.298 830.964 -858.816 831.121 -864.105 830.867 C-870.399 830.885 -876.049 833.461 -881.645 836.125 C-884.378 837.386 -885.588 837.886 -888.645 837.75 C-890.832 836.875 -890.832 836.875 -892.645 835.812 C-896.098 834.332 -899.203 834.129 -902.832 834.875 C-905.478 836.28 -907.896 837.832 -910.34 839.562 C-912.832 840.875 -912.832 840.875 -915.758 840.844 C-919.721 840.884 -921.576 842.26 -924.895 844.375 C-930.908 847.798 -934.876 848.276 -941.672 847.863 C-945.069 847.876 -947.302 848.535 -950.457 849.75 C-959.506 853.157 -969.83 854.004 -979.469 853.797 C-982.862 853.732 -982.862 853.732 -986.108 854.827 C-989.721 855.844 -993.048 856.359 -996.777 856.727 C-997.422 856.791 -998.066 856.854 -998.73 856.92 C-1000.805 857.122 -1002.881 857.312 -1004.957 857.5 C-1005.665 857.566 -1006.372 857.631 -1007.101 857.699 C-1036.805 860.428 -1036.805 860.428 -1046.832 857.875 C-1050.393 857.648 -1053.954 857.495 -1057.52 857.352 C-1060.832 856.875 -1060.832 856.875 -1064.832 853.875 C-1072.257 852.39 -1072.257 852.39 -1079.832 850.875 C-1079.832 572.355 -1079.832 293.835 -1079.832 6.875 C-1079.502 6.875 -1079.172 6.875 -1078.832 6.875 C-1078.502 8.525 -1078.172 10.175 -1077.832 11.875 C-1076.524 11.818 -1075.215 11.762 -1073.867 11.703 C-1068.879 11.707 -1064.892 12.853 -1060.27 14.625 C-1059.566 14.878 -1058.863 15.13 -1058.139 15.391 C-1054.487 16.734 -1051.052 18.249 -1047.613 20.07 C-1044.544 21.644 -1042.398 22.299 -1038.895 22 C-1032.535 21.737 -1027.158 22.776 -1021.395 25.5 C-1018.057 26.788 -1016.674 26.996 -1013.254 26.871 C-1007.886 26.797 -1002.807 27.448 -997.52 28.312 C-996.653 28.447 -995.786 28.582 -994.893 28.721 C-988.173 29.776 -988.173 29.776 -985.281 30.613 C-982.05 30.959 -979.511 30.141 -976.4 29.285 C-967.054 26.759 -961.529 26.699 -952.508 30.449 C-948.578 31.973 -944.972 32.642 -940.832 33.25 C-933.703 34.395 -927.806 36.866 -921.387 40.098 C-916.314 42.634 -911.089 44.755 -905.832 46.875 C-905.033 47.245 -904.234 47.615 -903.41 47.996 C-900.239 49.077 -897.552 49.14 -894.207 49.125 C-893.08 49.13 -891.954 49.135 -890.793 49.141 C-887.646 49.096 -887.646 49.096 -884.832 46.875 C-880.849 47.195 -878.23 48.711 -874.895 50.812 C-869.324 53.971 -864.302 54.851 -857.98 55.488 C-854.832 55.875 -854.832 55.875 -851.207 57.312 C-846.313 58.128 -843.121 56.032 -838.707 53.996 C-834.768 52.46 -832.833 52.708 -828.832 53.875 C-815.165 57.661 -798.906 55.001 -786.406 48.641 C-785.072 47.842 -783.745 47.031 -782.426 46.207 C-776.502 43.165 -769.911 41.44 -763.569 39.46 C-761.752 38.893 -761.752 38.893 -759.832 37.875 C-757.565 37.604 -755.299 37.43 -753.023 37.254 C-750.548 36.978 -750.548 36.978 -747.832 34.875 C-744.833 34.632 -744.833 34.632 -741.188 34.645 C-739.212 34.647 -739.212 34.647 -737.197 34.65 C-736.511 34.657 -735.825 34.663 -735.118 34.669 C-733.037 34.687 -730.957 34.69 -728.877 34.689 C-723.087 34.711 -717.546 34.833 -711.832 35.875 C-710.063 35.961 -708.291 36.005 -706.52 36 C-705.657 36.003 -704.795 36.005 -703.906 36.008 C-701.842 36.105 -701.842 36.105 -700.832 34.875 C-696.513 34.476 -692.62 34.641 -688.457 35.875 C-683.587 37.218 -678.86 37.249 -673.832 36.875 C-673.502 36.545 -673.172 36.215 -672.832 35.875 C-671.255 35.812 -669.675 35.816 -668.098 35.848 C-667.131 35.86 -666.164 35.872 -665.168 35.885 C-663.126 35.92 -661.085 35.959 -659.043 36.002 C-658.071 36.013 -657.099 36.024 -656.098 36.035 C-655.209 36.052 -654.319 36.069 -653.403 36.086 C-650.544 35.851 -648.457 34.995 -645.832 33.875 C-637.469 33.062 -629.744 34.02 -621.672 36.219 C-616.506 37.412 -613.514 36.865 -608.703 34.672 C-602.751 32.137 -596.759 31.641 -590.387 31.164 C-587.36 30.822 -584.697 29.878 -581.832 28.875 C-580.842 29.205 -579.852 29.535 -578.832 29.875 C-577.167 29.968 -575.499 30.005 -573.832 30 C-572.533 30.004 -572.533 30.004 -571.207 30.008 C-568.682 29.971 -568.682 29.971 -565.832 28.875 C-562.166 28.734 -558.939 28.854 -555.332 29.562 C-551.649 29.891 -550.304 29.237 -547.102 27.633 C-543.912 26.568 -540.872 26.53 -537.52 26.375 C-531.133 26.055 -525.806 25.081 -519.832 22.875 C-518.94 22.563 -518.048 22.251 -517.129 21.93 C-513.478 20.634 -509.859 19.346 -506.336 17.73 C-501.646 15.607 -498.195 14.7 -493.02 14.938 C-484.761 15.247 -477.327 12.295 -470.582 7.625 C-466.736 5.177 -463.27 5.015 -458.832 4.875 C-458.149 4.849 -457.466 4.823 -456.762 4.797 C-454.39 4.716 -452.018 4.666 -449.645 4.625 C-448.486 4.593 -448.486 4.593 -447.304 4.56 C-442.29 4.531 -439.316 5.462 -434.832 7.875 C-432.324 8.125 -432.324 8.125 -429.895 7.875 C-426.305 7.742 -424.969 7.808 -421.645 9.438 C-413.068 13.636 -399.858 9.459 -390.768 7.892 C-384.935 6.928 -379.39 6.794 -373.477 6.965 C-369.829 6.841 -367.131 5.374 -363.832 3.875 C-360.688 3.472 -357.571 3.253 -354.406 3.086 C-351.846 3.037 -351.846 3.037 -349.832 1.875 C-341.211 1.429 -334.224 3.48 -326.457 7.125 C-319.647 10.23 -312.742 12.701 -305.596 14.921 C-300.029 16.678 -300.029 16.678 -297.832 18.875 C-296.198 18.686 -294.565 18.48 -292.945 18.195 C-290.627 17.844 -288.363 17.718 -286.02 17.629 C-285.171 17.596 -284.323 17.563 -283.449 17.529 C-281.705 17.468 -279.96 17.411 -278.215 17.357 C-273.093 17.151 -268.768 16.364 -263.832 14.875 C-250.658 13.389 -240.649 17.757 -229.184 23.676 C-218.5 29.124 -210.17 30.799 -198.145 29.375 C-191.867 28.689 -185.616 28.733 -179.312 28.851 C-176.537 28.878 -173.767 28.829 -170.992 28.785 C-159.094 28.756 -150.485 29.585 -140.758 36.746 C-134.917 40.996 -129.352 41.425 -122.305 42.215 C-118.692 42.902 -116.076 44.193 -112.832 45.875 C-109.495 45.656 -109.495 45.656 -106.832 43.875 C-106.564 42.274 -106.317 40.669 -106.082 39.062 C-105.386 35.412 -105.148 34.191 -102.457 31.5 C-101.591 30.964 -100.725 30.428 -99.832 29.875 C-99.256 29.243 -98.68 28.612 -98.086 27.961 C-95.311 25.393 -92.644 24.292 -89.145 22.875 C-87.884 22.357 -86.623 21.839 -85.363 21.32 C-83.615 20.605 -83.615 20.605 -81.832 19.875 C-80.266 19.174 -78.703 18.467 -77.145 17.75 C-73.887 16.276 -70.591 15.09 -67.207 13.938 C-63.789 12.746 -61.3 11.626 -58.582 9.25 C-55.139 6.502 -51.904 6.401 -47.582 6 C-40.799 5.322 -36.692 3.533 -31.297 -0.566 C-22.382 -6.204 -9.197 -3.427 0 0 Z " fill="#FEF014" transform="translate(1079.83203125,3.125)"/>
<path d="M0 0 C2.97 0.495 2.97 0.495 6 1 C6 1.33 6 1.66 6 2 C3.69 2.33 1.38 2.66 -1 3 C-0.67 2.01 -0.34 1.02 0 0 Z " fill="#FBED25" transform="translate(1417,29)"/>
</svg>