<svg width="740" height="594" viewBox="0 0 740 594" fill="none" xmlns="http://www.w3.org/2000/svg">
<g opacity="0.12">
<path d="M400.902 379.995C424.443 416.978 478.702 424.616 522.075 397.053L587.001 355.792C629.784 328.603 645.645 276.982 622.424 240.501L543.799 116.979C567.094 102.175 596.208 106.274 608.852 126.137L706.638 279.762L727.655 266.406C765.399 242.42 779.396 196.862 758.911 164.679L686.44 50.8254C673.695 30.8022 644.332 26.6687 620.85 41.592L619.322 42.563C643.662 27.0946 652.683 -2.26675 639.472 -23.0214L495.491 -249.219L142.984 -25.2001L400.902 379.995ZM386.854 -129.585C410.149 -144.389 439.264 -140.29 451.907 -120.427L538.971 16.3523C551.615 36.2155 542.985 64.3003 519.691 79.1042L386.854 -129.585ZM266.738 -27.9847C260.423 -37.9049 264.738 -51.9473 276.372 -59.3408C288.006 -66.7342 302.563 -64.685 308.878 -54.7648L430.264 135.935L442.398 154.998L454.387 173.833L540.679 309.401C546.994 319.321 542.679 333.363 531.045 340.757C519.411 348.15 504.853 346.101 498.539 336.181L266.738 -27.9847Z" fill="#005E76"/>
<path d="M517.664 647.246C508.979 652.766 501.106 656.132 493.978 657.355C486.85 658.578 480.426 657.653 474.663 654.573C468.914 651.517 463.718 646.311 459.063 638.997C454.407 631.682 450.655 622.831 450.234 616.196C449.814 609.561 451.612 603.217 455.655 597.148C459.686 591.119 466.044 585.313 474.729 579.794L509.336 557.801L547.019 617.002L526.485 630.051L496.033 582.21L503.488 582.802L484.348 594.965C480.166 597.623 477.051 600.181 475.028 602.622C473.005 605.064 472.22 607.97 472.67 611.28C473.12 614.59 476.211 620.747 479.528 625.959C482.686 630.919 485.593 634.304 488.237 636.091C490.881 637.878 493.751 638.366 496.792 637.524C499.834 636.683 503.58 634.88 507.977 632.086L575.449 589.207L585.095 604.362L517.65 647.224L517.664 647.246ZM434.806 567.411L465.661 547.803L475.132 562.683L444.278 582.291L434.806 567.411ZM462.658 549.711L482.415 537.156L491.887 552.036L472.13 564.591L462.658 549.711ZM585.136 604.368L575.49 589.213C576.107 588.821 576.706 588.698 577.272 588.819C577.839 588.94 578.495 589.262 579.188 589.817C579.892 590.332 580.577 591.053 581.266 591.899C581.955 592.745 582.664 593.74 583.377 594.86C584.104 596.003 584.705 597.065 585.209 598.093C585.713 599.122 586.034 600.041 586.215 600.857C586.396 601.673 586.394 602.381 586.264 602.945C586.119 603.486 585.753 603.976 585.136 604.368Z" fill="#005E76"/>
<path d="M585.136 604.368C584.52 604.759 583.921 604.883 583.354 604.762C582.787 604.64 582.146 604.342 581.482 603.832C580.819 603.323 580.122 602.642 579.404 601.75C578.686 600.858 577.963 599.841 577.25 598.721C576.246 597.144 575.509 595.75 575.013 594.556C574.529 593.323 574.298 592.25 574.346 591.32C574.38 590.368 574.766 589.673 575.49 589.213L585.136 604.368ZM585.136 604.368L575.49 589.213L603.53 571.394L596.972 587.472L558.285 526.694L578.819 513.645L621.74 581.074L585.122 604.345L585.136 604.368ZM609.455 607.084L629.989 594.034L639.461 608.914L618.927 621.964L609.455 607.084Z" fill="#005E76"/>
<path d="M690.918 582.634C687.138 585.036 683.01 587.306 678.591 589.473C674.157 591.616 669.327 593.787 664.141 595.991L658.307 580.083C663.735 577.372 668.325 575.001 672.077 572.969C675.803 570.955 678.919 569.167 681.359 567.617C688.704 562.949 693.284 558.433 695.114 554.092C696.944 549.751 696.411 545.306 693.531 540.78L655.848 481.579L662.907 481.491L643.767 493.654C639.586 496.312 636.47 498.87 634.447 501.311C632.424 503.752 631.639 506.659 632.089 509.969C632.539 513.278 635.63 519.436 638.947 524.648C642.105 529.608 645.012 532.993 647.656 534.78C650.314 536.59 653.17 537.054 656.211 536.213C659.253 535.372 662.985 533.546 667.381 530.752L681.481 521.791L691.128 536.946L677.027 545.907C668.342 551.426 660.443 554.809 653.341 556.015C646.24 557.221 639.789 556.313 634.04 553.256C628.292 550.2 623.096 544.994 618.44 537.68C613.785 530.366 610.047 521.536 609.612 514.879C609.191 508.244 610.989 501.9 615.033 495.831C619.049 489.779 625.421 483.997 634.107 478.477L668.714 456.484L714.05 527.708C717.818 533.628 719.362 539.838 718.692 546.299C718.011 552.8 715.293 559.118 710.568 565.299C705.818 571.56 699.281 577.319 690.918 582.634Z" fill="#005E76"/>
<path d="M748.659 545.939C747.319 546.791 745.869 547.648 744.283 548.528C742.696 549.408 741.028 550.276 739.29 551.155L730.596 535.781C732.29 534.833 733.903 533.936 735.435 533.091C736.968 532.245 738.096 531.592 738.82 531.132C742.787 528.611 745.119 525.235 745.814 521.005C746.483 516.792 745.274 512.231 742.175 507.362L699.196 439.841L719.73 426.792L762.709 494.313C766.478 500.233 768.43 506.376 768.554 512.782C768.679 519.188 767.049 525.264 763.693 530.992C760.282 536.755 755.28 541.732 748.659 545.939ZM748.098 479.52L789.434 453.251L799.08 468.406L757.744 494.675L748.098 479.52ZM799.08 468.406L789.434 453.251C790.05 452.86 790.649 452.736 791.216 452.857C791.783 452.979 792.439 453.3 793.131 453.855C793.809 454.388 794.52 455.091 795.21 455.937C795.899 456.784 796.607 457.778 797.32 458.898C798.048 460.041 798.649 461.104 799.153 462.132C799.656 463.16 800.005 464.062 800.159 464.895C800.312 465.729 800.338 466.419 800.207 466.983C800.063 467.525 799.697 468.014 799.08 468.406Z" fill="#005E76"/>
<path d="M799.08 468.406C798.464 468.798 797.865 468.922 797.298 468.8C796.731 468.679 774.51 482.094 773.847 481.585C773.157 481.092 772.487 480.394 771.769 479.502C771.05 478.61 770.327 477.593 769.614 476.473C768.611 474.896 767.874 473.502 767.378 472.309C766.894 471.075 788.242 456.288 788.29 455.359C788.324 454.406 788.71 453.711 789.434 453.251L799.08 468.406ZM799.08 468.406L789.434 453.251L821.897 432.621C826.293 429.827 830.063 426.404 833.235 422.398C836.393 418.368 838.924 414.063 840.842 409.506C842.746 404.925 844.061 400.365 844.798 395.787C845.536 391.209 845.682 386.943 845.248 382.949C844.788 378.972 843.705 375.615 841.988 372.918L836.663 364.552L855.291 372.168C848.427 373.096 841.848 374.708 835.555 377.006C829.261 379.304 823.614 382.026 818.601 385.212C813.696 388.329 804.057 397.023 804.057 397.023C804.057 397.023 795.028 407.031 791.384 412.781L792.379 392.695L797.704 401.061C799.42 403.758 802.004 406.161 805.414 408.264C808.823 410.367 812.74 412.084 817.161 413.351C821.57 414.658 826.287 415.385 831.272 415.587C836.258 415.79 841.26 415.308 846.263 414.118C851.255 412.969 855.888 411.02 860.177 408.294L891.728 388.243L901.374 403.398L876.256 419.36C868.295 424.42 860.144 428.059 851.819 430.299C843.494 432.54 835.374 433.624 827.445 433.59C819.517 433.556 812.175 432.668 805.404 430.903C798.606 429.155 792.788 426.817 787.894 423.86C783 420.903 779.425 417.653 777.155 414.087L772.412 406.635C775.47 401.739 779.028 397.037 783.1 392.491C787.172 387.946 791.42 383.737 795.914 379.854C800.408 375.971 804.732 372.709 808.914 370.051C813.203 367.326 818.02 364.778 823.391 362.392C828.762 360.006 834.378 357.946 840.198 356.205C846.045 354.448 851.815 353.221 857.55 352.53L862.293 359.982C864.563 363.547 866.008 368.183 866.598 373.843C867.189 379.503 866.856 385.783 865.558 392.675C864.246 399.545 861.979 406.571 858.648 413.76C855.318 420.949 850.893 427.838 845.332 434.422C839.771 441.006 833.017 446.839 825.056 451.898L799.08 468.406ZM901.401 403.381L891.755 388.226C892.371 387.834 892.997 387.694 893.617 387.781C894.238 387.868 894.894 388.19 895.533 388.779C896.184 389.328 896.842 390.066 897.531 390.912C898.22 391.758 898.928 392.753 899.641 393.873C900.369 395.016 900.97 396.078 901.474 397.107C901.977 398.135 902.326 399.037 902.56 399.819C902.768 400.618 902.793 401.309 902.609 401.907C902.411 402.482 902.018 402.989 901.401 403.381Z" fill="#005E76"/>
</g>
</svg>
