<svg width="355" height="554" viewBox="0 0 355 554" fill="none" xmlns="http://www.w3.org/2000/svg">
<g opacity="0.12">
<path d="M-173.808 373.732C-186.038 399.312 -166.432 429.621 -130.024 441.419L-75.5236 459.081C-39.6102 470.719 -0.711359 459.699 11.3524 434.467L52.1996 349.034C71.754 355.371 82.2742 371.635 75.7057 385.373L24.9036 491.626L42.5453 497.343C74.2284 507.611 108.558 497.884 119.201 475.625L156.851 396.88C163.472 383.031 152.862 366.629 133.15 360.241L131.868 359.825C152.3 366.447 174.424 360.178 181.288 345.823L256.089 189.376L-39.8149 93.4832L-173.808 373.732ZM133.735 178.501C153.29 184.838 163.81 201.101 157.242 214.839L112.01 309.441C105.442 323.18 84.2788 329.176 64.7244 322.839L133.735 178.501ZM17.3461 155.152C20.6266 148.291 31.208 145.293 40.9739 148.458C50.7399 151.623 56 159.755 52.7195 166.616L-10.3428 298.512L-16.6468 311.697L-22.8752 324.723L-67.7059 418.488C-70.9864 425.349 -81.5678 428.347 -91.3338 425.182C-101.1 422.017 -106.36 413.885 -103.079 407.024L17.3461 155.152Z" fill="#005E76"/>
<path d="M280.06 138.534L290.612 116.464L215.859 92.2393L205.307 114.309L169.776 102.794L180.328 80.7249L105.576 56.5001L95.0242 78.5697L59.2008 66.9605L69.7527 44.8909L-4.99951 20.6661L-15.5515 42.7357L-19.6483 51.3043L-30.5555 74.1169L265.348 170.01L280.352 138.628L280.06 138.534Z" fill="#005E76"/>
</g>
</svg>
