<svg width="1920" height="906" viewBox="0 0 1920 906" fill="none" xmlns="http://www.w3.org/2000/svg">
<path d="M1882.52 43.4013C1872.64 34.8268 1835.02 66.85 1833.38 29.5771C1807.57 17.5028 1796.72 7.35338 1783.68 15.7529C1787.52 13.828 1767.07 51.9758 1731.51 7.87835C1721.36 -1.57111 1703.65 -5.2459 1686.62 12.6031C1676.74 3.67859 1672.35 21.8776 1642.69 28.7022C1630.75 49.876 1617.98 38.8516 1599.45 51.1009C1561.42 70.3498 1593.14 87.1488 1556.48 74.5496C1537.67 93.2735 1503.49 90.2987 1513.65 94.1484C1517.22 113.572 1505 123.897 1468.9 110.947C1439.66 126.522 1432.79 170.794 1418.65 127.572C1400.12 119.522 1383.23 153.82 1371.84 136.321C1345.35 153.995 1357.7 129.671 1334.91 132.296C1323.66 120.047 1338.07 144.196 1296.89 124.597C1268.88 102.898 1278.76 95.3734 1258.45 125.997C1227.56 125.822 1224.54 135.796 1214.11 138.421C1202.99 139.646 1192.14 136.846 1171.27 125.647C1156.04 109.898 1156.17 125.822 1139.84 113.572C1126.25 114.272 1115.68 124.597 1109.09 99.0482C1105.38 85.5739 1090.69 65.6251 1077.37 69.2999C1076.28 69.9998 1074.9 70.6998 1072.98 71.3997C1074.35 70.3498 1075.86 69.6498 1077.37 69.2999C1087.4 62.8252 1066.8 56.1756 1044.29 56.5256C1064.88 68.7749 1009.97 71.9247 1001.46 50.7509C972.355 63.7002 980.18 41.8264 962.883 55.4756C952.724 56.5256 939.683 69.6498 929.524 68.4249C927.739 94.6734 901.519 79.6243 895.341 83.474C894.243 81.7241 867.885 85.9239 850.313 99.9231C837.821 110.073 848.94 115.672 799.52 114.622C797.735 132.121 766.71 116.022 747.628 121.797C733.351 106.923 708.777 129.146 699.442 115.497C693.402 119.697 670.339 48.3011 662.514 96.4233C614.054 72.9746 700.129 85.3989 627.919 73.3246C610.622 74.1996 644.118 40.4265 587.147 56.3506C573.007 63.7002 590.579 65.4501 553.239 49.001C571.909 93.4485 500.112 68.2499 517.683 44.1013C522.9 24.3274 497.229 35.8768 482.952 45.5012C462.771 57.4005 442.866 44.1013 439.434 62.6502C427.078 79.9743 421.313 82.7741 410.605 85.049C407.585 88.7237 381.09 102.198 357.066 104.473C342.239 95.0234 344.71 83.824 324.256 107.098C294.603 114.447 319.451 81.8991 291.858 108.323C264.402 100.098 256.165 101.673 260.283 114.972C243.398 111.822 222.531 125.997 223.492 127.572C224.59 127.397 225.689 127.397 226.375 127.047C224.59 127.747 223.767 127.922 223.492 127.572C216.903 128.097 203.861 127.222 197.134 131.771C165.423 127.047 180.249 122.497 163.089 125.997C130.828 112.172 152.93 120.397 132.063 120.047C118.335 123.897 107.216 108.323 100.077 115.147C102.274 88.1988 64.2471 119.172 70.4247 97.4733C67.8164 99.7481 40.3604 67.7249 43.6551 78.3993C45.3024 84.524 31.9863 110.772 7.00129 78.9243C4.8048 78.5743 2.47104 78.0494 0 77.6994V366.433V605.644V845.381C14.0026 843.106 31.1626 826.307 35.9674 839.431C47.9108 833.656 53.5393 856.405 77.2887 837.506C94.3115 814.932 144.144 817.907 116.139 830.157C143.458 830.857 132.75 840.306 151.695 823.332C144.281 854.48 186.152 811.083 188.486 829.282C196.036 867.429 237.083 826.657 223.767 849.755C244.496 880.554 265.5 877.054 257.949 872.329C249.301 860.08 296.113 894.728 296.937 886.153C301.604 855.53 301.879 906.627 351.986 889.478C381.364 906.977 393.994 887.553 406.898 887.203C421.862 871.979 446.023 877.404 461.81 883.004C468.537 881.954 502.583 863.055 516.86 880.379C553.376 861.305 541.982 881.254 564.496 889.303C581.519 908.552 606.092 893.153 610.347 897.353C605.955 877.579 632.587 898.053 636.293 889.128C642.883 912.577 631.214 912.227 660.867 876.004C668.142 894.028 689.558 854.305 699.305 868.129C729.369 840.481 717.701 880.904 738.567 865.505C747.902 863.755 773.299 870.054 776.456 858.855C826.015 867.604 786.752 812.133 815.032 841.356C831.506 830.857 859.511 846.781 853.196 818.957C812.836 827.532 879.691 811.083 891.497 799.183C882.986 792.184 942.977 830.332 930.347 789.559C925.954 789.209 971.943 780.984 979.494 786.584C996.242 791.134 1008.05 796.733 1026.58 789.034C1055.82 784.834 1054.31 800.233 1062 802.683C1084.79 802.508 1099.2 807.233 1096.87 820.182C1097.69 861.305 1140.52 846.956 1136.27 826.832C1177.45 832.956 1159.88 853.43 1172.1 820.532C1187.34 783.259 1179.79 819.132 1202.57 816.157C1201.06 793.234 1229.48 805.658 1237.85 826.132C1251.17 848.181 1285.08 840.831 1273.14 847.831C1278.22 852.38 1294.55 865.33 1306.91 866.029C1314.32 876.179 1326.68 871.979 1347.95 869.879C1376.51 883.004 1380.08 855.18 1392.16 862.18C1421.67 864.28 1417.42 834.706 1436.5 852.555C1468.9 848.706 1463.54 843.981 1480.98 842.231C1498.41 869.179 1494.57 818.782 1525.32 832.256C1532.73 837.331 1550.3 842.931 1571.58 831.381C1569.11 846.081 1621.28 831.731 1617.57 839.606C1629.52 846.956 1640.64 838.731 1662.19 844.156C1653.4 854.655 1698.98 853.955 1704.06 832.256C1730.69 845.206 1698.43 828.757 1718.06 815.457C1720.94 803.383 1710.65 800.583 1731.51 799.708C1734.95 790.959 1756.64 809.858 1766.93 793.059C1768.85 779.234 1814.16 783.434 1804 794.634C1805.37 811.783 1834.75 789.034 1842.99 801.458C1847.24 803.908 1851.09 822.107 1872.5 816.157C1863.44 820.357 1906.41 834.881 1904.76 832.606C1910.39 831.906 1915.33 831.207 1920 830.682V605.819V366.608V47.2511C1912.04 44.4513 1908.74 42.7014 1882.52 43.4013Z" fill="#005E76"/>
</svg>
