<svg width="20" height="20" viewBox="0 0 20 20" fill="none" xmlns="http://www.w3.org/2000/svg">
<path d="M12.486 12.486L10.5845 17.7157C10.5401 17.8353 10.4601 17.9385 10.3554 18.0113C10.2506 18.0842 10.1261 18.1232 9.99853 18.1232C9.87094 18.1232 9.74641 18.0842 9.64167 18.0113C9.53693 17.9385 9.45699 17.8353 9.41259 17.7157L7.51415 12.486L2.28446 10.5845C2.16485 10.5401 2.06169 10.4601 1.98885 10.3554C1.916 10.2506 1.87695 10.1261 1.87695 9.99853C1.87695 9.87094 1.916 9.74641 1.98885 9.64167C2.06169 9.53693 2.16485 9.45699 2.28446 9.41259L7.51415 7.51415L9.41571 2.28446C9.46011 2.16485 9.54005 2.06169 9.64479 1.98885C9.74954 1.916 9.87407 1.87695 10.0017 1.87695C10.1292 1.87695 10.2538 1.916 10.3585 1.98885C10.4633 2.06169 10.5432 2.16485 10.5876 2.28446L12.4892 7.51415L17.7188 9.41571C17.8384 9.46011 17.9416 9.54005 18.0145 9.64479C18.0873 9.74954 18.1263 9.87407 18.1263 10.0017C18.1263 10.1292 18.0873 10.2538 18.0145 10.3585C17.9416 10.4633 17.8384 10.5432 17.7188 10.5876L12.486 12.486Z" stroke="white" stroke-width="1.5" stroke-linecap="round" stroke-linejoin="round"/>
</svg>
