<svg width="21" height="21" viewBox="0 0 21 21" fill="none" xmlns="http://www.w3.org/2000/svg">
<g clip-path="url(#clip0_38_1983)">
<path d="M10.5 0C13.2848 0 15.9555 1.10625 17.9246 3.07538C19.8938 5.04451 21 7.71523 21 10.5C21 13.2848 19.8938 15.9555 17.9246 17.9246C15.9555 19.8938 13.2848 21 10.5 21C7.71523 21 5.04451 19.8938 3.07538 17.9246C1.10625 15.9555 0 13.2848 0 10.5C0 7.71523 1.10625 5.04451 3.07538 3.07538C5.04451 1.10625 7.71523 0 10.5 0ZM11.8939 5.6595C11.8939 5.3114 11.7556 4.97756 11.5095 4.73142C11.2633 4.48528 10.9295 4.347 10.5814 4.347C10.2333 4.347 9.89944 4.48528 9.6533 4.73142C9.40716 4.97756 9.26887 5.3114 9.26887 5.6595V9.26887H5.6595C5.3114 9.26887 4.97756 9.40716 4.73142 9.6533C4.48528 9.89944 4.347 10.2333 4.347 10.5814C4.347 10.9295 4.48528 11.2633 4.73142 11.5095C4.97756 11.7556 5.3114 11.8939 5.6595 11.8939H9.26887V15.5033C9.26887 15.8513 9.40716 16.1852 9.6533 16.4313C9.89944 16.6775 10.2333 16.8158 10.5814 16.8158C10.9295 16.8158 11.2633 16.6775 11.5095 16.4313C11.7556 16.1852 11.8939 15.8513 11.8939 15.5033V11.8939H15.5033C15.8513 11.8939 16.1852 11.7556 16.4313 11.5095C16.6775 11.2633 16.8158 10.9295 16.8158 10.5814C16.8158 10.2333 16.6775 9.89944 16.4313 9.6533C16.1852 9.40716 15.8513 9.26887 15.5033 9.26887H11.8939V5.6595Z" fill="white"/>
</g>
<defs>
<clipPath id="clip0_38_1983">
<rect width="21" height="21" fill="white"/>
</clipPath>
</defs>
</svg>
