<svg width="35" height="54" viewBox="0 0 35 54" fill="none" xmlns="http://www.w3.org/2000/svg">
<path d="M0 46.12C0 50.3295 3.39542 53.7429 7.58277 53.7429H13.8508C17.9813 53.7429 21.3301 50.3763 21.3301 46.224V32.1646C23.579 32.1646 25.401 33.9961 25.401 36.257V53.7429H27.43C31.0738 53.7429 34.0293 50.7718 34.0293 47.1086V34.1496C34.0293 31.8706 32.1918 30.0234 29.9248 30.0234H29.7772C32.1271 30.0234 34.0319 28.1085 34.0319 25.7462V0H0V46.12ZM21.3301 4.10025C23.579 4.10025 25.401 5.93183 25.401 8.19269V23.7611C25.401 26.022 23.579 27.8536 21.3301 27.8536V4.10025ZM8.62831 6.14777C8.62831 5.01864 9.53928 4.10285 10.6625 4.10285C11.7856 4.10285 12.6966 5.01864 12.6966 6.14777V27.8536V30.0234V32.1672V47.5977C12.6966 48.7268 11.7856 49.6426 10.6625 49.6426C9.53928 49.6426 8.62831 48.7268 8.62831 47.5977V6.14777Z" fill="#005E76"/>
</svg>
