<svg width="580" height="580" viewBox="0 0 580 580" fill="none" xmlns="http://www.w3.org/2000/svg">
<path d="M355.62 177.77V163.81H322.4V177.77H306.61V163.81H273.39V177.77H257.47V163.81H224.25V177.77V183.19V197.62H355.75V177.77H355.62Z" fill="#FFE000"/>
<path d="M224.25 386.89C224.25 403.07 237.37 416.19 253.55 416.19H277.77C293.73 416.19 306.67 403.25 306.67 387.29V333.25C315.36 333.25 322.4 340.29 322.4 348.98V416.19H330.24C344.32 416.19 355.74 404.77 355.74 390.69V340.88C355.74 332.12 348.64 325.02 339.88 325.02H339.31C348.39 325.02 355.75 317.66 355.75 308.58V209.62H224.25V386.89ZM306.67 225.38C315.36 225.38 322.4 232.42 322.4 241.11V300.95C322.4 309.64 315.36 316.68 306.67 316.68V225.38ZM257.59 233.25C257.59 228.91 261.11 225.39 265.45 225.39C269.79 225.39 273.31 228.91 273.31 233.25V316.68V325.02V333.26V392.57C273.31 396.91 269.79 400.43 265.45 400.43C261.11 400.43 257.59 396.91 257.59 392.57V233.25Z" fill="#FFE000"/>
</svg>
