<svg width="183" height="70" viewBox="0 0 183 70" fill="none" xmlns="http://www.w3.org/2000/svg">
<path d="M0 61.8814C0 66.3647 3.63536 70 8.11859 70H14.8296C19.2519 70 22.8373 66.4146 22.8373 61.9923V47.0186C25.2452 47.0186 27.1959 48.9693 27.1959 51.3771V70H29.3682C33.2696 70 36.4339 66.8357 36.4339 62.9344V49.1328C36.4339 46.7055 34.4666 44.7382 32.0393 44.7382H31.8814C34.3973 44.7382 36.4367 42.6988 36.4367 40.1829V12.7626H0V61.8814ZM22.8373 17.1294C25.2452 17.1294 27.1959 19.0801 27.1959 21.488V38.0688C27.1959 40.4766 25.2452 42.4273 22.8373 42.4273V17.1294ZM9.23802 19.3101C9.23802 18.1075 10.2134 17.1322 11.4159 17.1322C12.6185 17.1322 13.5938 18.1075 13.5938 19.3101V42.4273V44.7382V47.0214V63.4553C13.5938 64.6578 12.6185 65.6332 11.4159 65.6332C10.2134 65.6332 9.23802 64.6578 9.23802 63.4553V19.3101Z" fill="#FFE000"/>
<path d="M36.4007 3.86811V0H27.1959V3.86811H22.8207V0H13.616V3.86811H9.20477V0H0V3.86811V5.36991V9.36825H36.4367V3.86811H36.4007Z" fill="#FFE000"/>
</svg>
