<svg width="20" height="20" viewBox="0 0 20 20" fill="none" xmlns="http://www.w3.org/2000/svg">
<path d="M10 10.0859V18.1234" stroke="white" stroke-width="1.5" stroke-linecap="round" stroke-linejoin="round"/>
<path d="M2.55469 6.00977L10 10.0848L17.4453 6.00977" stroke="white" stroke-width="1.5" stroke-linecap="round" stroke-linejoin="round"/>
<path d="M17.175 14.2849L10.3 18.049C10.208 18.0993 10.1049 18.1257 10 18.1257C9.89515 18.1257 9.79198 18.0993 9.7 18.049L2.825 14.2849C2.72683 14.2312 2.64488 14.1521 2.58772 14.0559C2.53055 13.9597 2.50025 13.8499 2.5 13.738V6.2646C2.50025 6.1527 2.53055 6.04291 2.58772 5.94672C2.64488 5.85052 2.72683 5.77144 2.825 5.71772L9.7 1.95366C9.79198 1.90333 9.89515 1.87695 10 1.87695C10.1049 1.87695 10.208 1.90333 10.3 1.95366L17.175 5.71772C17.2732 5.77144 17.3551 5.85052 17.4123 5.94672C17.4695 6.04291 17.4997 6.1527 17.5 6.2646V13.7365C17.5 13.8486 17.4699 13.9587 17.4127 14.0552C17.3555 14.1517 17.2734 14.2311 17.175 14.2849Z" stroke="white" stroke-width="1.5" stroke-linecap="round" stroke-linejoin="round"/>
<path d="M6.37109 3.77344L13.7492 7.81172V11.8742" stroke="white" stroke-width="1.5" stroke-linecap="round" stroke-linejoin="round"/>
</svg>
