<svg width="1920" height="594" viewBox="0 0 1920 594" fill="none" xmlns="http://www.w3.org/2000/svg">
<g clip-path="url(#clip0_59_4916)">
<path d="M1904.76 52.8602C1906.41 54.3286 1863.44 44.9538 1872.5 42.243C1851.08 46.0833 1847.24 34.3366 1842.98 32.7553C1834.61 24.8488 1805.36 39.4193 1803.99 28.3502C1814.15 21.2344 1768.98 18.5237 1766.92 27.3337C1756.62 38.1768 1734.93 25.8654 1731.5 31.6258C1710.63 32.0776 1720.93 33.9977 1718.05 41.7912C1698.55 50.3753 1730.68 60.9926 1704.04 52.6343C1698.96 66.64 1653.25 67.0918 1662.17 60.3149C1640.61 56.8134 1629.49 62.1221 1617.55 57.3782C1621.12 52.2955 1568.95 61.5573 1571.56 52.0696C1550.42 59.5242 1532.84 55.9099 1525.29 52.6343C1494.54 43.9372 1498.38 76.4666 1480.95 59.0724C1463.51 60.3149 1468.87 63.3645 1436.46 65.7364C1417.38 54.1027 1421.5 73.304 1392.12 71.9486C1380.04 67.4307 1376.47 85.3896 1347.91 76.9184C1326.63 78.2738 1314.28 80.9846 1306.86 74.4335C1294.51 74.0947 1278.03 65.6235 1273.09 62.6868C1285.03 58.1688 1251.12 62.9127 1237.81 48.6811C1229.57 35.466 1201.01 27.5596 1202.52 42.243C1179.73 44.0502 1187.28 21.0085 1172.04 45.0667C1159.83 66.3012 1177.4 53.1991 1136.21 49.1329C1140.47 62.1221 1097.63 71.3839 1096.81 44.8408C1099.01 36.5955 1084.73 33.433 1061.94 33.5459C1054.25 31.9646 1055.76 22.0251 1026.52 24.7359C1007.98 29.5927 996.176 26.0913 979.426 23.1546C971.876 19.5402 926.021 24.8488 930.277 25.0747C942.907 51.3919 882.912 26.769 891.424 31.2869C879.617 39.0804 812.757 49.5847 853.12 44.0502C859.435 62.0091 831.291 51.8437 814.953 58.5077C786.809 39.5322 825.936 75.3371 776.375 69.8026C773.08 77.0314 747.818 72.9652 738.483 74.0947C717.615 84.0342 729.147 57.9429 699.218 75.7889C689.47 66.8659 668.19 92.5054 660.777 80.8716C631.122 104.252 642.929 104.591 636.202 89.3428C632.495 95.1032 605.861 81.8882 610.254 94.6514C606.135 91.9407 581.423 101.767 564.399 89.4558C541.883 84.2601 553.279 71.3839 516.759 83.6954C502.481 72.6263 468.433 84.8249 461.706 85.3896C445.918 81.7752 421.892 78.2738 406.79 88.1004C394.022 88.3263 381.254 100.864 351.874 89.5687C301.901 100.638 301.763 67.7695 296.958 87.5356C296.134 93.0702 249.319 70.8192 257.968 78.6126C265.656 81.5493 244.513 83.8083 223.783 64.0422C237.1 49.02 196.05 75.3371 188.499 50.8271C186.165 39.1934 144.154 67.0918 151.705 46.9869C132.759 57.9429 143.468 51.8437 116.147 51.3919C144.017 43.4854 94.3182 41.5653 77.2942 56.1357C53.5431 68.3343 48.0515 53.5379 35.97 57.2652C31.1648 48.907 14.0036 59.7501 0 61.2185V212.796V429.998V549.837C2.47122 550.063 4.80515 550.289 7.00179 550.628C31.9886 571.184 45.3057 554.129 43.6582 550.289C40.3632 543.399 67.9585 564.181 70.2925 562.826C63.9771 576.832 102.144 556.84 99.9471 574.234C107.086 569.829 118.207 579.881 131.936 577.396C152.804 577.622 130.7 572.314 162.963 581.237C180.124 578.978 165.297 581.914 197.011 584.964C203.738 581.914 216.781 582.592 223.371 582.253C222.547 581.124 243.415 572.088 260.164 574.121C256.046 565.537 264.283 564.52 291.741 569.829C319.336 552.774 294.487 573.782 324.142 569.038C344.598 553.903 342.127 561.245 356.954 567.344C380.98 565.876 407.477 557.179 410.497 554.807C407.339 555.258 403.77 555.71 399.514 556.388C408.849 554.016 411.87 553.79 410.497 554.807C421.206 553.225 426.972 551.531 439.328 540.349C442.76 528.377 462.667 536.848 482.849 529.28C496.99 523.068 522.8 515.613 517.583 528.376C500.147 543.851 571.813 560.115 553.141 531.539C590.484 542.156 572.911 541.027 587.052 536.283C643.89 526.005 610.528 547.804 627.827 547.239C700.041 554.92 613.961 546.9 662.287 562.148C670.112 531.087 693.177 577.171 699.218 574.46C708.553 583.27 733.128 568.925 747.406 578.526C766.352 574.912 797.38 585.303 799.302 573.895C848.727 574.573 837.606 570.958 850.099 564.407C867.672 555.484 894.169 552.661 895.13 553.79C901.308 551.305 927.531 561.132 929.316 544.076C939.338 544.754 952.518 536.396 962.677 535.718C979.976 526.908 972.15 541.14 1001.26 532.669C1009.77 546.335 1064.68 544.302 1044.09 536.396C1066.47 536.057 1087.2 540.462 1077.18 544.641C1090.49 542.156 1105.18 555.033 1108.89 563.843C1115.48 580.446 1126.19 573.669 1139.64 573.217C1155.98 581.124 1155.84 570.845 1171.08 581.011C1191.95 588.127 1202.8 590.047 1213.92 589.256C1224.35 587.449 1227.23 581.124 1258.26 581.237C1278.58 561.471 1268.7 566.327 1296.7 580.333C1338.03 592.984 1323.61 577.396 1334.73 585.303C1357.39 583.609 1345.03 599.309 1371.66 587.901C1383.06 599.083 1399.95 576.945 1418.48 582.253C1432.76 610.152 1439.49 581.576 1468.73 571.523C1504.84 579.881 1516.92 573.217 1513.48 560.68C1503.32 558.195 1537.51 560.228 1556.32 548.03C1592.98 556.162 1561.26 545.319 1599.29 532.895C1617.82 524.988 1630.59 532.217 1642.54 518.437C1672.19 514.032 1676.58 502.172 1686.47 508.046C1703.49 496.525 1721.2 498.897 1731.36 504.996C1766.92 533.572 1787.38 508.836 1783.53 510.079C1796.58 504.657 1807.42 511.208 1833.23 519.002C1835.02 543.06 1872.64 522.39 1882.38 527.925C1908.6 527.473 1911.9 528.602 1919.59 530.523V430.224V212.796V51.6178C1915.33 51.9566 1910.25 52.4084 1904.76 52.8602Z" fill="#005E76"/>
<path d="M1904.76 31.174C1906.41 32.6423 1863.44 23.2675 1872.5 20.5567C1851.08 24.397 1847.24 12.6503 1842.98 11.069C1834.61 3.16255 1805.36 17.733 1803.99 6.66398C1814.15 -0.451823 1768.98 -3.1626 1766.92 5.64744C1756.62 16.4906 1734.93 4.1791 1731.5 9.93951C1710.63 10.3913 1720.93 12.3114 1718.05 20.1049C1698.55 28.6891 1730.68 39.3063 1704.04 30.9481C1698.96 44.9538 1653.25 45.4056 1662.17 38.6286C1640.61 35.1272 1629.49 40.4358 1617.55 35.6919C1621.12 30.6092 1568.95 39.8711 1571.56 30.3833C1550.42 37.838 1532.84 34.2236 1525.29 30.9481C1494.54 22.251 1498.38 54.7804 1480.95 37.3862C1463.51 38.6286 1468.87 41.6782 1436.46 44.0502C1417.38 32.4164 1421.5 51.6178 1392.12 50.2624C1380.04 45.7444 1376.47 63.7033 1347.91 55.2321C1326.63 56.4746 1314.28 59.1854 1306.86 52.6343C1294.51 52.2955 1278.03 43.8243 1273.09 40.8876C1285.03 36.3696 1251.12 41.1135 1237.81 26.8819C1229.57 13.6668 1201.01 5.76039 1202.52 20.4438C1179.73 22.251 1187.28 -0.790672 1172.04 23.2675C1159.83 44.502 1177.4 31.3999 1136.21 27.3337C1140.47 40.3229 1097.63 49.5847 1096.81 23.0416C1099.01 14.7963 1084.73 11.6337 1061.94 11.7467C1054.25 10.1654 1055.76 0.225872 1026.52 2.93665C1007.98 7.79347 996.176 4.29204 979.426 1.35536C971.876 -2.25901 926.021 3.0496 930.277 3.2755C942.907 29.5927 882.912 4.96974 891.424 9.48771C879.617 17.2812 812.757 27.7855 853.12 22.251C859.435 40.2099 831.291 30.0445 814.953 36.7085C786.809 17.733 825.936 53.5379 776.375 48.0034C773.08 55.2321 747.818 51.166 738.483 52.2955C717.615 62.235 729.147 36.1437 699.218 53.9897C689.47 45.0667 668.19 70.7062 660.777 59.0724C631.122 82.4529 642.929 82.6788 636.202 67.5436C632.495 73.304 605.861 60.089 610.254 72.8522C606.135 70.1414 581.423 79.968 564.399 67.6566C541.883 62.4609 553.279 49.5847 516.759 61.8962C502.481 50.8271 468.433 63.0256 461.706 63.5904C445.918 59.976 421.892 56.4746 406.79 66.3012C394.022 66.5271 381.254 79.0644 351.874 67.7695C301.763 78.8385 301.489 45.8574 296.821 65.6235C295.997 71.158 249.181 48.907 257.831 56.7005C265.519 59.6372 244.376 61.8962 223.645 42.13C236.962 27.1078 195.913 53.425 188.362 28.915C186.028 17.2812 144.017 45.1797 151.568 25.0747C132.622 36.0308 143.331 29.9315 116.01 29.4797C143.88 21.5733 94.1809 19.6531 77.157 34.2236C53.5431 46.5351 48.0515 31.8517 35.97 35.579C31.1648 27.1078 14.0036 37.9509 0 39.4193V190.997V408.199V528.038C2.47122 528.264 4.80515 528.489 7.00179 528.828C31.9886 549.385 45.3057 532.33 43.6582 528.49C40.3632 521.6 67.9585 542.382 70.2925 541.027C63.9771 555.033 102.144 535.041 99.9471 552.435C107.086 548.03 118.207 558.082 131.936 555.597C152.804 555.823 130.7 550.515 162.963 559.438C180.124 557.179 165.297 560.115 197.011 563.165C203.738 560.115 216.781 560.793 223.371 560.454C222.547 559.325 243.415 550.289 260.164 552.322C256.046 543.738 264.283 542.721 291.741 548.03C319.336 530.974 294.487 551.983 324.142 547.239C344.598 532.104 342.127 539.446 356.954 545.545C380.98 544.076 407.477 535.379 410.497 533.007C407.339 533.459 403.77 533.911 399.514 534.589C408.849 532.217 411.87 531.991 410.497 533.007C421.206 531.426 426.972 529.732 439.328 518.55C442.76 506.577 462.667 515.049 482.849 507.481C496.99 501.269 522.8 493.814 517.583 506.577C500.147 522.051 571.813 538.316 553.141 509.74C590.484 520.357 572.911 519.228 587.052 514.484C643.89 504.205 610.528 526.005 627.827 525.44C700.041 533.12 613.961 525.101 662.287 540.349C670.112 509.288 693.177 555.371 699.218 552.661C708.553 561.471 733.128 547.126 747.406 556.727C766.352 553.112 797.38 563.504 799.302 552.096C848.727 552.774 837.606 549.159 850.099 542.608C867.672 533.685 894.169 530.861 895.13 531.991C901.308 529.506 927.531 539.333 929.316 522.277C939.338 522.955 952.518 514.597 962.677 513.919C979.976 505.109 972.15 519.341 1001.26 510.869C1009.77 524.536 1064.68 522.503 1044.09 514.597C1066.47 514.258 1087.2 518.663 1077.18 522.842C1090.49 520.357 1105.18 533.233 1108.89 542.043C1115.48 558.647 1126.19 551.87 1139.64 551.418C1155.98 559.325 1155.84 549.046 1171.08 559.212C1191.95 566.327 1202.8 568.248 1213.92 567.457C1224.35 565.65 1227.23 559.325 1258.26 559.438C1278.58 539.671 1268.7 544.528 1296.7 558.534C1338.03 571.184 1323.61 555.597 1334.73 563.504C1357.39 561.81 1345.03 577.509 1371.66 566.102C1383.06 577.284 1399.95 555.145 1418.48 560.454C1432.76 588.353 1439.49 559.776 1468.73 549.724C1504.84 558.082 1516.92 551.418 1513.48 538.881C1503.32 536.396 1537.51 538.429 1556.32 526.23C1592.98 534.363 1561.26 523.52 1599.29 511.095C1617.82 503.189 1630.59 510.418 1642.54 496.638C1672.19 492.233 1676.58 480.373 1686.47 486.246C1703.49 474.726 1721.2 477.098 1731.36 483.197C1766.92 511.773 1787.38 487.037 1783.53 488.28C1796.58 482.858 1807.42 489.409 1833.23 497.203C1835.02 521.261 1872.64 500.591 1882.38 506.126C1908.6 505.674 1911.9 506.803 1919.59 508.723V408.424V190.997V29.8186C1915.33 30.2704 1910.25 30.7222 1904.76 31.174Z" fill="#FFE000"/>
<g opacity="0.12">
<path d="M-173.808 414.432C-186.038 440.012 -166.432 470.321 -130.024 482.119L-75.5236 499.781C-39.6102 511.419 -0.711359 500.399 11.3524 475.167L52.1996 389.734C71.754 396.071 82.2742 412.335 75.7057 426.073L24.9036 532.326L42.5453 538.043C74.2284 548.311 108.558 538.584 119.201 516.325L156.851 437.58C163.472 423.731 152.862 407.329 133.15 400.941L131.868 400.525C152.3 407.147 174.424 400.878 181.288 386.523L256.089 230.076L-39.8149 134.183L-173.808 414.432ZM133.735 219.201C153.29 225.538 163.81 241.801 157.242 255.539L112.01 350.141C105.442 363.88 84.2788 369.876 64.7244 363.539L133.735 219.201ZM17.3461 195.852C20.6266 188.991 31.208 185.993 40.9739 189.158C50.7399 192.323 56 200.455 52.7195 207.316L-10.3428 339.212L-16.6468 352.397L-22.8752 365.423L-67.7059 459.188C-70.9864 466.049 -81.5678 469.047 -91.3338 465.882C-101.1 462.717 -106.36 454.585 -103.079 447.724L17.3461 195.852Z" fill="#005E76"/>
<path d="M280.06 179.234L290.612 157.164L215.859 132.939L205.307 155.009L169.776 143.494L180.328 121.425L105.576 97.2001L95.0242 119.27L59.2008 107.661L69.7527 85.5909L-4.99951 61.3661L-15.5515 83.4357L-19.6483 92.0043L-30.5555 114.817L265.348 210.71L280.352 179.328L280.06 179.234Z" fill="#005E76"/>
</g>
<mask id="mask0_59_4916" style="mask-type:alpha" maskUnits="userSpaceOnUse" x="-11" y="-54" width="1943" height="703">
<path d="M1916.99 -15.8248C1918.66 -14.021 1875.16 -25.5377 1884.34 -28.8678C1862.66 -24.1501 1858.77 -38.5807 1854.46 -40.5232C1845.98 -50.2361 1816.38 -32.3367 1814.99 -45.9347C1825.28 -54.6763 1779.56 -58.0064 1777.47 -47.1835C1767.05 -33.863 1745.09 -48.9873 1741.62 -41.9108C1720.5 -41.3558 1730.92 -38.9969 1728 -29.4228C1708.27 -18.8774 1740.78 -5.83439 1713.83 -16.1023C1708.68 1.10338 1662.41 1.65841 1671.44 -6.66692C1649.62 -10.9683 1638.37 -4.44683 1626.28 -10.2746C1629.89 -16.5186 1577.08 -5.14061 1579.73 -16.7961C1558.32 -7.63821 1540.54 -12.0784 1532.89 -16.1023C1501.77 -26.7865 1505.66 13.1751 1488.01 -8.19323C1470.36 -6.66692 1475.78 -2.92052 1442.98 -0.00666046C1423.67 -14.2985 1427.84 9.28994 1398.1 7.62488C1385.87 2.07466 1382.26 24.1368 1353.35 13.7301C1331.81 15.2564 1319.31 18.5866 1311.8 10.5387C1299.3 10.1225 1282.62 -0.284176 1277.62 -3.89182C1289.71 -9.44203 1255.38 -3.6143 1241.9 -21.0975C1233.57 -37.3319 1204.66 -47.0447 1206.19 -29.0065C1183.12 -26.7865 1190.76 -55.0926 1175.34 -25.5377C1162.97 0.548359 1180.76 -15.5473 1139.07 -20.5425C1143.38 -4.58559 1100.02 6.79235 1099.19 -25.8152C1101.41 -35.9443 1086.96 -39.8295 1063.89 -39.6907C1056.11 -41.6333 1057.64 -53.8438 1028.04 -50.5136C1009.28 -44.5472 997.325 -48.8486 980.372 -52.4562C972.729 -56.8964 926.315 -50.3749 930.623 -50.0974C943.407 -17.7674 882.68 -48.016 891.296 -42.4658C879.345 -32.8917 811.669 -19.9874 852.525 -26.7865C858.917 -4.72435 830.429 -17.2123 813.893 -9.02576C785.405 -32.3367 825.01 11.6488 774.844 4.84977C771.508 13.7301 745.939 8.73493 736.489 10.1225C715.367 22.333 727.04 -9.71954 696.746 12.2038C686.879 1.24213 665.34 32.7396 657.836 18.4478C627.819 47.1702 639.77 47.4477 632.961 28.8545C629.209 35.931 602.25 19.6966 606.697 35.376C602.528 32.0458 577.514 44.1176 560.283 28.9932C537.492 22.6105 549.026 6.79235 512.062 21.9167C497.61 8.31866 463.146 23.3042 456.337 23.998C440.356 19.5579 416.038 15.2564 400.751 27.3281C387.828 27.6057 374.904 43.0075 345.166 29.132C294.444 42.73 294.166 2.21342 289.441 26.4956C288.607 33.2946 241.22 5.95982 249.975 15.5339C257.757 19.1416 236.357 21.9167 215.373 -2.36551C228.853 -20.82 187.302 11.51 179.659 -18.5999C177.297 -32.8917 134.774 1.38089 142.417 -23.3176C123.24 -9.8583 134.079 -17.3511 106.425 -17.9061C134.635 -27.619 84.3296 -29.9778 67.098 -12.0784C43.1961 3.04596 37.6375 -14.9922 25.4087 -10.4133C20.5449 -20.82 3.17437 -7.49945 -11 -5.69563V180.514V447.341V594.56C-8.49864 594.838 -6.13625 595.115 -3.91282 595.532C21.3787 620.785 34.8582 599.833 33.1907 595.115C29.8555 586.651 57.7874 612.182 60.1498 610.517C53.7574 627.723 92.3895 603.163 90.1661 624.531C97.3922 619.12 108.648 631.469 122.545 628.417C143.667 628.694 121.294 622.173 153.951 633.134C171.321 630.359 156.313 633.967 188.414 637.713C195.223 633.967 208.425 634.799 215.095 634.383C214.261 632.996 235.384 621.895 252.337 624.393C248.169 613.847 256.506 612.599 284.299 619.12C312.231 598.168 287.079 623.976 317.095 618.149C337.801 599.556 335.299 608.575 350.307 616.067C374.626 614.264 401.446 603.579 404.503 600.666C401.307 601.221 397.694 601.776 393.386 602.608C402.836 599.694 405.893 599.417 404.503 600.666C415.343 598.723 421.179 596.642 433.686 582.905C437.16 568.197 457.31 578.603 477.738 569.307C492.051 561.675 518.176 552.517 512.896 568.197C495.247 587.206 567.787 607.187 548.888 572.082C586.686 585.125 568.898 583.737 583.212 577.91C640.743 565.283 606.975 592.063 624.484 591.369C697.579 600.804 610.449 590.953 659.364 609.685C667.285 571.527 690.631 628.139 696.746 624.809C706.195 635.632 731.07 618.01 745.522 629.804C764.699 625.364 796.105 638.13 798.051 624.115C848.078 624.948 836.822 620.508 849.467 612.46C867.255 601.498 894.075 598.029 895.048 599.417C901.301 596.364 927.843 608.436 929.65 587.484C939.794 588.316 953.135 578.048 963.418 577.216C980.928 566.393 973.007 583.876 1002.47 573.469C1011.08 590.259 1066.67 587.761 1045.82 578.048C1068.48 577.632 1089.46 583.044 1079.31 588.178C1092.79 585.125 1107.66 600.943 1111.42 611.766C1118.09 632.163 1128.92 623.838 1142.54 623.283C1159.08 632.996 1158.94 620.369 1174.37 632.857C1195.49 641.598 1206.47 643.957 1217.72 642.986C1228.28 640.766 1231.2 632.996 1262.61 633.134C1283.18 608.852 1273.17 614.819 1301.52 632.024C1343.35 647.565 1328.76 628.417 1340.01 638.13C1362.94 636.048 1350.43 655.335 1377.39 641.321C1388.93 655.058 1406.02 627.862 1424.78 634.383C1439.23 668.656 1446.04 633.551 1475.64 621.201C1512.19 631.469 1524.42 623.283 1520.94 607.881C1510.66 604.828 1545.26 607.326 1564.3 592.34C1601.4 602.331 1569.3 589.01 1607.8 573.747C1626.56 564.034 1639.48 572.914 1651.57 555.986C1681.59 550.575 1686.03 536.005 1696.04 543.221C1713.27 529.068 1731.2 531.982 1741.48 539.474C1777.47 574.58 1798.18 544.192 1794.29 545.718C1807.49 539.058 1818.47 547.106 1844.59 556.68C1846.4 586.235 1884.47 560.843 1894.34 567.642C1920.88 567.087 1924.22 568.474 1932 570.833V447.618V180.514V-17.4898C1927.69 -16.9348 1922.55 -16.3798 1916.99 -15.8248Z" fill="#FFE000"/>
</mask>
<g mask="url(#mask0_59_4916)">
<g opacity="0.12">
<path d="M1581.38 379.995C1604.92 416.978 1659.18 424.616 1702.55 397.053L1767.48 355.792C1810.26 328.603 1826.12 276.982 1802.9 240.501L1724.27 116.979C1747.57 102.175 1776.68 106.274 1789.33 126.137L1887.11 279.762L1908.13 266.406C1945.87 242.42 1959.87 196.862 1939.39 164.679L1866.92 50.8254C1854.17 30.8022 1824.81 26.6687 1801.33 41.592L1799.8 42.563C1824.14 27.0946 1833.16 -2.26675 1819.95 -23.0214L1675.97 -249.219L1323.46 -25.2001L1581.38 379.995ZM1567.33 -129.585C1590.62 -144.389 1619.74 -140.29 1632.38 -120.427L1719.45 16.3523C1732.09 36.2155 1723.46 64.3003 1700.17 79.1042L1567.33 -129.585ZM1447.21 -27.9847C1440.9 -37.9049 1445.21 -51.9473 1456.85 -59.3408C1468.48 -66.7342 1483.04 -64.685 1489.35 -54.7648L1610.74 135.935L1622.87 154.998L1634.86 173.833L1721.15 309.401C1727.47 319.321 1723.15 333.363 1711.52 340.757C1699.89 348.15 1685.33 346.101 1679.01 336.181L1447.21 -27.9847Z" fill="#005E76"/>
<path d="M1698.14 647.246C1689.45 652.766 1681.58 656.132 1674.45 657.355C1667.33 658.578 1660.9 657.653 1655.14 654.573C1649.39 651.517 1644.19 646.311 1639.54 638.997C1634.88 631.682 1631.13 622.831 1630.71 616.196C1630.29 609.561 1632.09 603.217 1636.13 597.148C1640.16 591.119 1646.52 585.313 1655.2 579.794L1689.81 557.801L1727.49 617.002L1706.96 630.051L1676.51 582.21L1683.96 582.802L1664.82 594.965C1660.64 597.623 1657.53 600.181 1655.5 602.622C1653.48 605.064 1652.7 607.97 1653.15 611.28C1653.6 614.59 1656.69 620.747 1660 625.959C1663.16 630.919 1666.07 634.304 1668.71 636.091C1671.36 637.878 1674.23 638.366 1677.27 637.524C1680.31 636.683 1684.06 634.88 1688.45 632.086L1755.92 589.207L1765.57 604.362L1698.13 647.224L1698.14 647.246ZM1615.28 567.411L1646.14 547.803L1655.61 562.683L1624.75 582.291L1615.28 567.411ZM1643.13 549.711L1662.89 537.156L1672.36 552.036L1652.61 564.591L1643.13 549.711ZM1765.61 604.368L1755.97 589.213C1756.58 588.821 1757.18 588.698 1757.75 588.819C1758.31 588.94 1758.97 589.262 1759.66 589.817C1760.37 590.332 1761.05 591.053 1761.74 591.899C1762.43 592.745 1763.14 593.74 1763.85 594.86C1764.58 596.003 1765.18 597.065 1765.68 598.093C1766.19 599.122 1766.51 600.041 1766.69 600.857C1766.87 601.673 1766.87 602.381 1766.74 602.945C1766.59 603.486 1766.23 603.976 1765.61 604.368Z" fill="#005E76"/>
<path d="M1765.61 604.368C1765 604.759 1764.4 604.883 1763.83 604.762C1763.26 604.64 1762.62 604.342 1761.96 603.832C1761.29 603.323 1760.6 602.642 1759.88 601.75C1759.16 600.858 1758.44 599.841 1757.73 598.721C1756.72 597.144 1755.98 595.75 1755.49 594.556C1755 593.323 1754.77 592.25 1754.82 591.32C1754.86 590.368 1755.24 589.673 1755.97 589.213L1765.61 604.368ZM1765.61 604.368L1755.97 589.213L1784.01 571.394L1777.45 587.472L1738.76 526.694L1759.29 513.645L1802.22 581.074L1765.6 604.345L1765.61 604.368ZM1789.93 607.084L1810.46 594.034L1819.94 608.914L1799.4 621.964L1789.93 607.084Z" fill="#005E76"/>
<path d="M1871.39 582.634C1867.61 585.036 1863.49 587.306 1859.07 589.473C1854.63 591.616 1849.8 593.787 1844.62 595.991L1838.78 580.083C1844.21 577.372 1848.8 575.001 1852.55 572.969C1856.28 570.955 1859.39 569.167 1861.83 567.617C1869.18 562.949 1873.76 558.433 1875.59 554.092C1877.42 549.751 1876.89 545.306 1874.01 540.78L1836.32 481.579L1843.38 481.491L1824.24 493.654C1820.06 496.312 1816.95 498.87 1814.92 501.311C1812.9 503.752 1812.11 506.659 1812.56 509.969C1813.01 513.278 1816.11 519.436 1819.42 524.648C1822.58 529.608 1825.49 532.993 1828.13 534.78C1830.79 536.59 1833.65 537.054 1836.69 536.213C1839.73 535.372 1843.46 533.546 1847.86 530.752L1861.96 521.791L1871.6 536.946L1857.5 545.907C1848.82 551.426 1840.92 554.809 1833.82 556.015C1826.72 557.221 1820.26 556.313 1814.52 553.256C1808.77 550.2 1803.57 544.994 1798.92 537.68C1794.26 530.366 1790.52 521.536 1790.09 514.879C1789.67 508.244 1791.46 501.9 1795.51 495.831C1799.53 489.779 1805.9 483.997 1814.58 478.477L1849.19 456.484L1894.53 527.708C1898.29 533.628 1899.84 539.838 1899.17 546.299C1898.49 552.8 1895.77 559.118 1891.04 565.299C1886.29 571.56 1879.76 577.319 1871.39 582.634Z" fill="#005E76"/>
<path d="M1929.13 545.939C1927.79 546.791 1926.34 547.648 1924.76 548.528C1923.17 549.408 1921.5 550.276 1919.77 551.155L1911.07 535.781C1912.77 534.833 1914.38 533.936 1915.91 533.091C1917.44 532.245 1918.57 531.592 1919.3 531.132C1923.26 528.611 1925.59 525.235 1926.29 521.005C1926.96 516.792 1925.75 512.231 1922.65 507.362L1879.67 439.841L1900.21 426.792L1943.18 494.313C1946.95 500.233 1948.91 506.376 1949.03 512.782C1949.15 519.188 1947.52 525.264 1944.17 530.992C1940.76 536.755 1935.76 541.732 1929.13 545.939ZM1928.57 479.52L1969.91 453.251L1979.56 468.406L1938.22 494.675L1928.57 479.52ZM1979.56 468.406L1969.91 453.251C1970.53 452.86 1971.12 452.736 1971.69 452.857C1972.26 452.979 1972.91 453.3 1973.61 453.855C1974.28 454.388 1975 455.091 1975.69 455.937C1976.37 456.784 1977.08 457.778 1977.8 458.898C1978.52 460.041 1979.12 461.104 1979.63 462.132C1980.13 463.16 1980.48 464.062 1980.63 464.895C1980.79 465.729 1980.81 466.419 1980.68 466.983C1980.54 467.525 1980.17 468.014 1979.56 468.406Z" fill="#005E76"/>
<path d="M1979.56 468.406C1978.94 468.798 1978.34 468.922 1977.77 468.8C1977.21 468.679 1954.99 482.094 1954.32 481.585C1953.63 481.092 1952.96 480.394 1952.24 479.502C1951.53 478.61 1950.8 477.593 1950.09 476.473C1949.09 474.896 1948.35 473.502 1947.85 472.309C1947.37 471.075 1968.72 456.288 1968.77 455.359C1968.8 454.406 1969.19 453.711 1969.91 453.251L1979.56 468.406ZM1979.56 468.406L1969.91 453.251L2002.37 432.621C2006.77 429.827 2010.54 426.404 2013.71 422.398C2016.87 418.368 2019.4 414.063 2021.32 409.506C2023.22 404.925 2024.54 400.365 2025.27 395.787C2026.01 391.209 2026.16 386.943 2025.72 382.949C2025.26 378.972 2024.18 375.615 2022.46 372.918L2017.14 364.552L2035.77 372.168C2028.9 373.096 2022.32 374.708 2016.03 377.006C2009.74 379.304 2004.09 382.026 1999.08 385.212C1994.17 388.329 1984.53 397.023 1984.53 397.023C1984.53 397.023 1975.5 407.031 1971.86 412.781L1972.85 392.695L1978.18 401.061C1979.9 403.758 1982.48 406.161 1985.89 408.264C1989.3 410.367 1993.22 412.084 1997.64 413.351C2002.05 414.658 2006.76 415.385 2011.75 415.587C2016.73 415.79 2021.74 415.308 2026.74 414.118C2031.73 412.969 2036.36 411.02 2040.65 408.294L2072.2 388.243L2081.85 403.398L2056.73 419.36C2048.77 424.42 2040.62 428.059 2032.29 430.299C2023.97 432.54 2015.85 433.624 2007.92 433.59C1999.99 433.556 1992.65 432.668 1985.88 430.903C1979.08 429.155 1973.26 426.817 1968.37 423.86C1963.48 420.903 1959.9 417.653 1957.63 414.087L1952.89 406.635C1955.95 401.739 1959.5 397.037 1963.58 392.491C1967.65 387.946 1971.9 383.737 1976.39 379.854C1980.88 375.971 1985.21 372.709 1989.39 370.051C1993.68 367.326 1998.5 364.778 2003.87 362.392C2009.24 360.006 2014.85 357.946 2020.67 356.205C2026.52 354.448 2032.29 353.221 2038.03 352.53L2042.77 359.982C2045.04 363.547 2046.48 368.183 2047.07 373.843C2047.66 379.503 2047.33 385.783 2046.03 392.675C2044.72 399.545 2042.45 406.571 2039.12 413.76C2035.79 420.949 2031.37 427.838 2025.81 434.422C2020.25 441.006 2013.49 446.839 2005.53 451.898L1979.56 468.406ZM2081.88 403.381L2072.23 388.226C2072.85 387.834 2073.47 387.694 2074.09 387.781C2074.71 387.868 2075.37 388.19 2076.01 388.779C2076.66 389.328 2077.32 390.066 2078.01 390.912C2078.7 391.758 2079.4 392.753 2080.12 393.873C2080.84 395.016 2081.45 396.078 2081.95 397.107C2082.45 398.135 2082.8 399.037 2083.04 399.819C2083.24 400.618 2083.27 401.309 2083.08 401.907C2082.89 402.482 2082.49 402.989 2081.88 403.381Z" fill="#005E76"/>
</g>
</g>
</g>
<defs>
<clipPath id="clip0_59_4916">
<rect width="1920" height="594" fill="white"/>
</clipPath>
</defs>
</svg>
