<svg width="5" height="9" viewBox="0 0 5 9" fill="none" xmlns="http://www.w3.org/2000/svg">
<path d="M2.82653 8.85714C2.22789 8.85714 1.71769 8.7415 1.29592 8.5102C0.87415 8.28571 0.55102 7.97959 0.326531 7.59184C0.108844 7.21088 0 6.78231 0 6.30612C0 5.89116 0.0952381 5.52041 0.285714 5.19388C0.482993 4.86735 0.734694 4.58503 1.04082 4.34694C1.34694 4.10884 1.66667 3.92177 2 3.78571C1.72109 3.68367 1.47959 3.54422 1.27551 3.36735C1.07143 3.19048 0.914966 2.98639 0.806122 2.7551C0.704082 2.52381 0.653061 2.28572 0.653061 2.04082C0.653061 1.61225 0.748299 1.2483 0.938775 0.948979C1.13605 0.642857 1.39456 0.408163 1.71429 0.244898C2.03401 0.0816329 2.37755 0 2.7449 0C2.98299 0 3.21429 0.0238094 3.43878 0.0714279C3.66327 0.119048 3.86054 0.180272 4.03061 0.255102C4.11905 0.289115 4.18027 0.333333 4.21429 0.387755C4.2551 0.442177 4.2585 0.513605 4.22449 0.602041L4.13265 0.999999C4.10544 1.09524 4.06122 1.15306 4 1.17347C3.94558 1.19388 3.87415 1.18367 3.78571 1.14286C3.62245 1.06803 3.44558 1.01361 3.2551 0.979589C3.06463 0.945579 2.88775 0.928571 2.72449 0.928571C2.32993 0.928571 2.02381 1.03401 1.80612 1.2449C1.58844 1.44898 1.47959 1.71088 1.47959 2.03061C1.47959 2.22109 1.53061 2.40136 1.63265 2.57143C1.73469 2.7415 1.88775 2.88095 2.09184 2.9898C2.30272 3.09864 2.56463 3.15306 2.87755 3.15306C3.06122 3.15306 3.2517 3.13946 3.44898 3.11225C3.64626 3.08503 3.84014 3.04762 4.03061 3C4.22789 2.95238 4.41837 2.91157 4.60204 2.87755C4.69048 2.85714 4.7483 2.86395 4.77551 2.89796C4.80272 2.93197 4.80952 2.9898 4.79592 3.07143L4.70408 3.59184C4.68367 3.69388 4.65306 3.76531 4.61224 3.80612C4.57143 3.84694 4.5102 3.87415 4.42857 3.88776L3.06122 4.19388C2.78912 4.2551 2.52041 4.35034 2.2551 4.47959C1.9966 4.60204 1.7585 4.7517 1.54082 4.92857C1.32313 5.10544 1.14966 5.30612 1.02041 5.53061C0.891156 5.7619 0.826531 6.0102 0.826531 6.27551C0.826531 6.57483 0.904762 6.84694 1.06122 7.09184C1.22449 7.33673 1.47619 7.53401 1.81633 7.68367C2.15646 7.83333 2.59184 7.90816 3.12245 7.90816H4.7551C4.91837 7.90816 5 7.98639 5 8.14286V8.62245C5 8.77891 4.91837 8.85714 4.7551 8.85714H2.82653Z" fill="white"/>
</svg>
