<svg width="13" height="13" viewBox="0 0 13 13" fill="none" xmlns="http://www.w3.org/2000/svg">
<path d="M10.1494 0.75H7.57937C7.24325 0.750121 6.91061 0.818019 6.60134 0.949633C6.29206 1.08125 6.0125 1.27388 5.77937 1.516L1.16937 6.302C0.896884 6.58505 0.746328 6.96371 0.750068 7.35659C0.753808 7.74946 0.911545 8.12519 1.18937 8.403L4.66937 11.883C4.90093 12.1142 5.21391 12.2454 5.5411 12.2483C5.8683 12.2513 6.18362 12.1259 6.41937 11.899L11.5354 6.973C11.7292 6.7864 11.8834 6.56259 11.9888 6.31499C12.0941 6.06739 12.1484 5.80108 12.1484 5.532V2.75C12.1484 2.21957 11.9377 1.71086 11.5626 1.33579C11.1875 0.960714 10.6788 0.75 10.1484 0.75" stroke="#D9D9D9" stroke-width="1.5" stroke-linecap="round" stroke-linejoin="round"/>
<path d="M9.14894 4.31301C9.45987 4.31301 9.71194 4.06095 9.71194 3.75001C9.71194 3.43908 9.45987 3.18701 9.14894 3.18701C8.838 3.18701 8.58594 3.43908 8.58594 3.75001C8.58594 4.06095 8.838 4.31301 9.14894 4.31301Z" stroke="#D9D9D9" stroke-width="1.5" stroke-linecap="round" stroke-linejoin="round"/>
<path d="M9.13867 3.74023H9.15867V3.76023H9.13867V3.74023Z" stroke="#D9D9D9" stroke-width="1.5" stroke-linejoin="round"/>
</svg>
