<svg width="17" height="16" viewBox="0 0 17 16" fill="none" xmlns="http://www.w3.org/2000/svg">
<path d="M15.7835 2.89293V6.5495C15.7834 7.38653 15.4569 8.19052 14.8732 8.7905L9.35493 14.4644M10.6406 0.964355H8.00365C7.32172 0.964501 6.66777 1.23551 6.18565 1.71778L1.62393 6.27821C1.41498 6.48715 1.24922 6.7352 1.13614 7.00819C1.02305 7.28119 0.964844 7.57379 0.964844 7.86928C0.964844 8.16478 1.02305 8.45738 1.13614 8.73037C1.24922 9.00337 1.41498 9.25142 1.62393 9.46036L4.62222 12.4574C4.98388 12.8189 5.47433 13.022 5.98572 13.022C6.49711 13.022 6.98756 12.8189 7.34922 12.4574L12.1372 7.66936C12.6195 7.18723 12.8905 6.53329 12.8906 5.85136V3.21436C12.8906 2.61762 12.6536 2.04532 12.2316 1.62337C11.8097 1.20141 11.2374 0.964355 10.6406 0.964355Z" stroke="white" stroke-width="1.92857" stroke-linecap="round" stroke-linejoin="round"/>
</svg>
