<svg width="1920" height="906" viewBox="0 0 1920 906" fill="none" xmlns="http://www.w3.org/2000/svg">
<path d="M1882.52 43.4013C1872.64 34.8268 1835.02 66.85 1833.38 29.5771C1807.57 17.5028 1796.72 7.35338 1783.68 15.7529C1787.52 13.828 1767.07 51.9759 1731.51 7.87835C1721.36 -1.57111 1703.65 -5.2459 1686.62 12.6031C1676.74 3.67859 1672.35 21.8776 1642.69 28.7022C1630.75 49.876 1617.98 38.8516 1599.45 51.1009C1561.42 70.3498 1593.14 87.1489 1556.48 74.5496C1537.67 93.2735 1503.49 90.2987 1513.65 94.1485C1517.22 113.572 1505 123.897 1468.9 110.948C1439.66 126.522 1432.79 170.794 1418.65 127.572C1400.12 119.522 1383.23 153.82 1371.84 136.321C1345.35 153.995 1357.7 129.671 1334.91 132.296C1323.66 120.047 1338.07 144.196 1296.89 124.597C1268.88 102.898 1278.76 95.3734 1258.45 125.997C1227.56 125.822 1224.54 135.796 1214.11 138.421C1202.99 139.646 1192.14 136.846 1171.27 125.647C1156.04 109.898 1156.17 125.822 1139.84 113.572C1126.25 114.272 1115.68 124.597 1109.09 99.0482C1105.38 85.5739 1090.69 65.6251 1077.37 69.2999C1076.28 69.9998 1074.9 70.6998 1072.98 71.3997C1074.35 70.3498 1075.86 69.6499 1077.37 69.2999C1087.4 62.8252 1066.8 56.1756 1044.29 56.5256C1064.88 68.7749 1009.97 71.9247 1001.46 50.7509C972.355 63.7002 980.18 41.8264 962.883 55.4757C952.724 56.5256 939.682 69.6499 929.524 68.4249C927.739 94.6734 901.519 79.6243 895.341 83.4741C894.243 81.7242 867.885 85.9239 850.313 99.9231C837.821 110.073 848.94 115.672 799.519 114.622C797.735 132.121 766.71 116.022 747.628 121.797C733.35 106.923 708.777 129.146 699.442 115.497C693.402 119.697 670.339 48.3011 662.514 96.4233C614.054 72.9747 700.129 85.3989 627.919 73.4996C610.622 74.3746 644.118 40.6015 587.147 56.5256C573.007 63.8752 590.579 65.6251 553.239 49.176C571.909 93.6235 500.112 68.4249 517.683 44.2763C522.9 24.5024 497.229 36.0518 482.952 45.6762C462.771 57.5755 442.866 44.2763 439.434 62.8252C427.078 80.1493 421.313 82.9491 410.605 85.224C407.585 88.8988 381.09 102.373 357.066 104.648C342.239 95.1984 344.71 83.999 324.256 107.273C294.603 114.622 319.451 82.0741 291.858 108.498C264.402 100.273 256.165 101.848 260.283 115.147C243.398 111.997 222.531 126.172 223.492 127.747C224.59 127.572 225.689 127.572 226.375 127.222C224.59 127.922 223.767 128.097 223.492 127.747C216.903 128.272 203.861 127.397 197.134 131.946C165.423 127.222 180.249 122.672 163.089 126.172C130.828 112.347 152.93 120.572 132.063 120.222C118.335 124.072 107.216 108.498 100.077 115.322C102.136 88.7238 63.9725 119.522 70.2874 97.9982C67.8164 99.9231 40.3604 67.8999 43.6551 78.3993C45.3024 84.524 31.9863 110.773 7.00129 78.9243C4.8048 78.5743 2.47104 78.2244 0 77.8744V366.608V605.819V845.556C14.0026 843.281 31.1626 826.482 35.9674 839.606C47.9108 833.832 53.5393 856.58 77.2887 837.681C94.3115 815.108 144.144 818.082 116.139 830.332C143.458 831.032 132.75 840.481 151.695 823.507C144.281 854.655 186.152 811.258 188.486 829.457C196.036 867.605 237.083 826.832 223.767 849.931C244.496 880.729 265.5 877.229 257.949 872.504C249.301 860.255 296.113 894.903 296.937 886.329C301.604 855.705 301.879 906.802 351.986 889.653C381.364 907.152 393.994 887.728 406.898 887.378C421.862 872.154 446.023 877.579 461.81 883.179C468.537 882.129 502.583 863.23 516.86 880.554C553.376 861.48 541.982 881.429 564.496 889.478C581.519 908.727 606.092 893.328 610.347 897.528C605.955 877.754 632.587 898.228 636.293 889.303C642.883 912.752 631.214 912.402 660.867 876.179C668.142 894.203 689.558 854.48 699.305 868.305C729.369 840.656 717.701 881.079 738.567 865.68C747.902 863.93 773.299 870.229 776.456 859.03C826.015 867.78 786.752 812.308 815.032 841.531C831.506 831.032 859.511 846.956 853.196 819.132C812.836 827.707 879.691 811.258 891.497 799.358C882.986 792.359 942.977 830.507 930.347 789.734C925.954 789.384 971.943 781.159 979.494 786.759C996.242 791.309 1008.05 796.909 1026.58 789.209C1055.82 785.009 1054.31 800.408 1062 802.858C1084.79 802.683 1099.2 807.408 1096.87 820.357C1097.69 861.48 1140.52 847.131 1136.27 827.007C1177.45 833.132 1159.88 853.605 1172.1 820.707C1187.34 783.434 1179.79 819.307 1202.57 816.333C1201.06 793.409 1229.48 805.833 1237.85 826.307C1251.17 848.356 1285.08 841.006 1273.14 848.006C1278.22 852.555 1294.55 865.505 1306.91 866.205C1314.32 876.354 1326.68 872.154 1347.95 870.055C1376.51 883.179 1380.08 855.355 1392.16 862.355C1421.67 864.455 1417.42 834.881 1436.5 852.73C1468.9 848.881 1463.54 844.156 1480.98 842.406C1498.41 869.354 1494.57 818.957 1525.32 832.432C1532.73 837.506 1550.3 843.106 1571.58 831.557C1569.11 846.256 1621.28 831.907 1617.57 839.781C1629.52 847.131 1640.64 838.906 1662.19 844.331C1653.4 854.83 1698.98 854.13 1704.06 832.432C1730.69 845.381 1698.43 828.932 1718.06 815.633C1720.94 803.558 1710.65 800.758 1731.51 799.883C1734.95 791.134 1756.64 810.033 1766.93 793.234C1768.85 779.41 1814.16 783.609 1804 794.809C1805.37 811.958 1834.75 789.209 1842.99 801.633C1847.24 804.083 1851.09 822.282 1872.5 816.333C1863.44 820.532 1906.41 835.056 1904.76 832.782C1910.39 832.082 1915.33 831.382 1920 830.857V605.819V366.608V47.4261C1912.04 44.4513 1908.74 42.8764 1882.52 43.4013Z" fill="#FFE000"/>
</svg>
