<svg width="47" height="90" viewBox="0 0 47 90" fill="none" xmlns="http://www.w3.org/2000/svg">
<path d="M0.000244141 79.6051C0.000244141 85.3453 4.60079 89.9999 10.2743 89.9999H18.7671C24.3635 89.9999 28.9009 85.4092 28.9009 79.747V60.575C31.9481 60.575 34.4167 63.0726 34.4167 66.1556V89.9999H37.1658C42.103 89.9999 46.1074 85.9484 46.1074 80.9532V63.2819C46.1074 60.1741 43.6178 57.6552 40.5461 57.6552H40.3462C43.5301 57.6552 46.1109 55.044 46.1109 51.8227V16.7142H0.000244141V79.6051ZM28.9009 22.3055C31.9481 22.3055 34.4167 24.8031 34.4167 27.8861V49.1158C34.4167 52.1987 31.9481 54.6964 28.9009 54.6964V22.3055ZM11.691 25.0975C11.691 23.5578 12.9253 22.309 14.4471 22.309C15.9689 22.309 17.2032 23.5578 17.2032 25.0975V54.6964V57.6552V60.5785V81.6202C17.2032 83.1599 15.9689 84.4087 14.4471 84.4087C12.9253 84.4087 11.691 83.1599 11.691 81.6202V25.0975Z" fill="#FFE000"/>
<path d="M46.6239 4.97328V0H34.8339V4.97328H29.23V0H17.44V4.97328H11.7899V0H0V4.97328V6.90417V12.0449H46.67V4.97328H46.6239Z" fill="#FFE000"/>
</svg>
