<svg width="37" height="90" viewBox="0 0 37 90" fill="none" xmlns="http://www.w3.org/2000/svg">
<path d="M0.000244141 79.6051C0.000244141 85.3453 3.59203 89.9999 8.02154 89.9999H14.6521C19.0214 89.9999 22.5639 85.4092 22.5639 79.747V60.575C24.9429 60.575 26.8702 63.0726 26.8702 66.1556V89.9999H29.0165C32.8711 89.9999 35.9975 85.9484 35.9975 80.9532V63.2819C35.9975 60.1741 34.0538 57.6552 31.6556 57.6552H31.4996C33.9853 57.6552 36.0002 55.044 36.0002 51.8227V16.7142H0.000244141V79.6051ZM22.5639 22.3055C24.9429 22.3055 26.8702 24.8031 26.8702 27.8861V49.1158C26.8702 52.1987 24.9429 54.6964 22.5639 54.6964V22.3055ZM9.12754 25.0975C9.12754 23.5578 10.0912 22.309 11.2793 22.309C12.4675 22.309 13.4311 23.5578 13.4311 25.0975V54.6964V57.6552V60.5785V81.6202C13.4311 83.1599 12.4675 84.4087 11.2793 84.4087C10.0912 84.4087 9.12754 83.1599 9.12754 81.6202V25.0975Z" fill="#005E76"/>
<path d="M36.4007 4.97328V0H27.1959V4.97328H22.8207V0H13.616V4.97328H9.20477V0H0V4.97328V6.90417V12.0449H36.4367V4.97328H36.4007Z" fill="#005E76"/>
</svg>
