<svg width="38" height="24" viewBox="0 0 38 24" fill="none" xmlns="http://www.w3.org/2000/svg">
<path opacity="0.07" d="M35 0H3C1.3 0 0 1.3 0 3V21C0 22.7 1.4 24 3 24H35C36.7 24 38 22.7 38 21V3C38 1.3 36.6 0 35 0Z" fill="black"/>
<path d="M35 1C36.1 1 37 1.9 37 3V21C37 22.1 36.1 23 35 23H3C1.9 23 1 22.1 1 21V3C1 1.9 1.9 1 3 1H35Z" fill="white"/>
<path d="M11 7.2H17C17.2 7.2 17.3 7.3 17.3 7.5V11.2C17.3 11.3 17.2 11.4 17.1 11.4H5.4C5.1 11.4 5 11.3 5 11V7.6C5 7.3 5.1 7.2 5.4 7.2C7.2 7.1 9.1 7.1 11 7.2Z" fill="#15A2DB"/>
<path d="M11.0002 12.7H16.8002C17.0002 12.7 17.1002 12.8 17.1002 13V16.5C17.1002 16.7 17.0002 16.7 16.8002 16.8H5.2002C4.8002 16.8 4.7002 16.7 4.7002 16.4V13C4.7002 12.7 4.8002 12.6 5.1002 12.6C7.2002 12.7 9.1002 12.7 11.0002 12.7Z" fill="#88BE44"/>
<path d="M30.5996 8.9V7.9C30.6996 7.6 30.7996 7.4 31.0996 7.3C31.4996 7.2 31.9996 7.1 32.4996 7.2C33.0996 7.3 33.3996 7.7 33.5996 8.2C33.8996 8.9 33.6996 9.6 33.2996 10.1C32.9996 10.5 32.4996 10.6 31.9996 10.6C30.6996 10.5 29.3996 10.5 27.9996 10.5H25.9996C25.8996 10.5 25.7996 10.5 25.7996 10.3V10C25.7996 9.8 25.8996 9.7 26.0996 9.7H27.4996C27.5996 9.7 27.5996 9.6 27.5996 9.6V8.5C27.4996 8.1 27.2996 7.9 26.8996 7.8H26.2996C26.0996 7.8 25.9996 7.7 26.0996 7.5C26.0996 7.4 26.0996 7.3 26.1996 7.2C26.1996 7.1 26.2996 7 26.3996 7H27.2996C27.9996 7.1 28.4996 7.5 28.5996 8.2C28.6996 8.5 28.6996 8.8 28.6996 9.1V9.5C28.6996 9.7 28.7996 9.7 28.8996 9.7H30.2996C30.4996 9.7 30.4996 9.6 30.4996 9.5C30.5996 9.4 30.5996 9.1 30.5996 8.9ZM31.4996 8.9V9.6C31.4996 9.7 31.4996 9.8 31.5996 9.8C31.9996 10 32.5996 9.7 32.6996 9.3C32.7996 9 32.7996 8.7 32.6996 8.4C32.5996 8.2 32.4996 8.1 32.2996 8H31.7996C31.4996 8 31.3996 8.1 31.4996 8.4V8.9ZM22.1996 11H20.0996C19.6996 11 19.2996 10.9 18.9996 10.5L18.6996 9.9C18.5996 9.4 18.5996 9 18.6996 8.5C18.7996 7.8 19.2996 7.3 20.0996 7.3H21.2996C21.3996 7.3 21.3996 7.3 21.3996 7.4V7.7C21.2996 7.9 21.1996 8 20.9996 8H20.1996C19.7996 8.1 19.5996 8.3 19.5996 8.6C19.4996 9 19.4996 9.3 19.5996 9.7C19.6996 10.1 19.8996 10.3 20.2996 10.3H24.1996C24.3996 10.2 24.4996 10.1 24.4996 9.9C24.4996 9.7 24.3996 9.5 24.1996 9.5H22.7996C21.9996 9.4 21.6996 8.5 22.0996 7.8C22.1996 7.6 22.3996 7.5 22.6996 7.4C22.8996 7.3 23.1996 7.3 23.3996 7.3H25.3996C25.4996 7.3 25.5996 7.3 25.4996 7.5V7.8C25.4996 8 25.3996 8.1 25.1996 8.1H23.0996C23.0996 8 22.9996 8.1 22.9996 8.3C22.9996 8.5 23.0996 8.7 23.3996 8.7H24.2996C24.4996 8.7 24.6996 8.7 24.8996 8.8C25.3996 9 25.6996 9.4 25.5996 9.9C25.5996 10 25.5996 10.1 25.4996 10.2C25.3996 10.6 25.1996 10.8 24.7996 10.9C24.4996 11 24.1996 11 23.8996 11H22.1996ZM18.5996 15.3V14.2C18.5996 13.9 18.6996 13.7 18.9996 13.7C19.4996 13.5 19.9996 13.5 20.4996 13.5C20.6996 13.5 20.7996 13.6 20.8996 13.6C20.9996 13.7 21.0996 13.6 21.1996 13.6C21.5996 13.4 21.9996 13.4 22.3996 13.5C22.8996 13.6 23.1996 13.9 23.2996 14.4V16.5C23.2996 16.7 23.1996 16.7 23.0996 16.7H22.5996C22.3996 16.7 22.3996 16.6 22.3996 16.5V14.7C22.3996 14.3 22.1996 14.2 21.7996 14.2H21.6996C21.4996 14.3 21.4996 14.3 21.4996 14.5V16.5C21.4996 16.7 21.3996 16.7 21.2996 16.7H20.7996C20.5996 16.7 20.5996 16.6 20.5996 16.5V14.8C20.5996 14.4 20.1996 14.2 19.7996 14.4C19.6996 14.4 19.6996 14.5 19.6996 14.6V16.5C19.6996 16.8 19.5996 16.8 19.3996 16.8H18.9996C18.7996 16.8 18.7996 16.7 18.7996 16.6V16.5C18.5996 16 18.5996 15.6 18.5996 15.3ZM30.2996 14.2V16.1C30.2996 16.4 30.1996 16.6 29.8996 16.7C29.3996 16.8 28.8996 16.9 28.3996 16.8C27.8996 16.7 27.4996 16.4 27.3996 15.8C27.2996 15.3 27.2996 14.9 27.3996 14.4C27.5996 13.8 28.1996 13.4 28.8996 13.5C28.9996 13.5 29.0996 13.5 29.1996 13.6C29.3996 13.6 29.3996 13.6 29.3996 13.4V12.5C29.3996 12.4 29.4996 12.3 29.5996 12.2C29.7996 12.2 29.8996 12.1 30.0996 12.1C30.1996 12.1 30.2996 12.1 30.2996 12.3V14.2ZM29.2996 15V14.5C29.2996 14.4 29.2996 14.4 29.1996 14.3C28.8996 14.1 28.3996 14.2 28.2996 14.5C28.0996 14.9 28.0996 15.3 28.2996 15.6C28.4996 16 28.7996 16.1 29.1996 16C29.2996 16 29.3996 15.9 29.2996 15.8V15ZM26.6996 15.5V16.5C26.6996 16.7 26.5996 16.8 26.4996 16.7C26.1996 16.6 25.7996 16.6 25.4996 16.6C25.1996 16.6 24.9996 16.7 24.6996 16.6C24.2996 16.5 23.8996 16.3 23.7996 15.9C23.5996 15.3 23.8996 14.8 24.4996 14.7C24.8996 14.6 25.1996 14.6 25.5996 14.6C25.7996 14.6 25.7996 14.6 25.7996 14.4C25.7996 14.2 25.6996 14 25.4996 14H24.9996C24.7996 14 24.5996 14.1 24.3996 14.1C24.2996 14.1 24.0996 14.2 23.9996 14C23.8996 13.9 23.8996 13.7 23.9996 13.5L24.0996 13.4C24.5996 13.2 25.1996 13.1 25.7996 13.2H25.9996C26.3996 13.3 26.6996 13.6 26.7996 14V15C26.6996 15.4 26.6996 15.5 26.6996 15.5ZM25.3996 15.4C25.1996 15.4 24.9996 15.4 24.8996 15.5C24.6996 15.6 24.6996 15.7 24.6996 15.9C24.6996 16.1 24.7996 16.2 24.9996 16.2H25.3996C25.6996 16.2 25.6996 16.1 25.7996 15.8C25.7996 15.4 25.7996 15.3 25.3996 15.4ZM33.6996 15.5V16.5C33.6996 16.7 33.5996 16.7 33.4996 16.7C33.0996 16.6 32.5996 16.6 32.1996 16.7C31.8996 16.8 31.5996 16.7 31.2996 16.6C30.9996 16.4 30.7996 16.1 30.7996 15.8C30.7996 15.4 30.8996 15.2 31.2996 15C31.5996 14.8 31.8996 14.8 32.1996 14.8H32.6996C32.7996 14.8 32.7996 14.8 32.8996 14.7C32.8996 14.4 32.7996 14.2 32.4996 14.2C32.1996 14.2 31.7996 14.2 31.4996 14.3C31.3996 14.3 31.3996 14.4 31.2996 14.4C31.1996 14.4 31.0996 14.4 31.0996 14.3V14C31.0996 13.9 31.0996 13.8 31.1996 13.8C31.7996 13.6 32.3996 13.5 32.9996 13.6C33.5996 13.7 33.7996 14.1 33.7996 14.7C33.6996 14.9 33.6996 15.2 33.6996 15.5ZM32.7996 15.7V15.5C32.7996 15.4 32.7996 15.4 32.6996 15.4H32.0996C31.8996 15.5 31.6996 15.6 31.7996 15.8C31.7996 16 31.9996 16.1 32.1996 16.1H32.5996C32.6996 16.1 32.7996 16 32.7996 15.9V15.7Z" fill="#262D35"/>
</svg>
